<svg width="70" height="70" viewBox="0 0 70 70" fill="none" xmlns="http://www.w3.org/2000/svg">
<path d="M14.2188 8.75C13.1371 8.75 12.0798 9.07074 11.1805 9.67165C10.2811 10.2726 9.5802 11.1267 9.16629 12.1259C8.75237 13.1252 8.64407 14.2248 8.85508 15.2856C9.0661 16.3465 9.58694 17.3209 10.3518 18.0857C11.1166 18.8506 12.091 19.3714 13.1519 19.5824C14.2127 19.7934 15.3123 19.6851 16.3116 19.2712C17.3108 18.8573 18.1649 18.1564 18.7659 17.257C19.3668 16.3577 19.6875 15.3004 19.6875 14.2187C19.6875 12.7683 19.1113 11.3773 18.0857 10.3518C17.0602 9.32617 15.6692 8.75 14.2188 8.75ZM14.2188 17.5C13.5698 17.5 12.9354 17.3076 12.3958 16.947C11.8562 16.5865 11.4356 16.074 11.1873 15.4744C10.9389 14.8749 10.8739 14.2151 11.0006 13.5786C11.1272 12.9421 11.4397 12.3574 11.8986 11.8986C12.3574 11.4397 12.9421 11.1272 13.5786 11.0005C14.2151 10.8739 14.8749 10.9389 15.4744 11.1873C16.074 11.4356 16.5865 11.8562 16.947 12.3958C17.3076 12.9354 17.5 13.5698 17.5 14.2187C17.5 15.089 17.1543 15.9236 16.5389 16.5389C15.9236 17.1543 15.089 17.5 14.2188 17.5Z" fill="#E2A140"/>
<path d="M28.4375 19.6875C29.5191 19.6875 30.5764 19.3668 31.4758 18.7659C32.3751 18.1649 33.076 17.3108 33.49 16.3116C33.9039 15.3123 34.0122 14.2127 33.8012 13.1519C33.5901 12.091 33.0693 11.1166 32.3045 10.3518C31.5397 9.58694 30.5652 9.0661 29.5044 8.85508C28.4436 8.64407 27.344 8.75237 26.3447 9.16629C25.3454 9.5802 24.4913 10.2811 23.8904 11.1805C23.2895 12.0798 22.9688 13.1371 22.9688 14.2188C22.9688 15.6692 23.5449 17.0602 24.5705 18.0857C25.5961 19.1113 26.9871 19.6875 28.4375 19.6875ZM28.4375 10.9375C29.0865 10.9375 29.7209 11.1299 30.2605 11.4905C30.8001 11.851 31.2206 12.3635 31.469 12.9631C31.7173 13.5626 31.7823 14.2224 31.6557 14.8589C31.5291 15.4954 31.2166 16.0801 30.7577 16.5389C30.2988 16.9978 29.7141 17.3103 29.0776 17.437C28.4411 17.5636 27.7814 17.4986 27.1818 17.2502C26.5822 17.0019 26.0698 16.5813 25.7092 16.0417C25.3487 15.5021 25.1562 14.8677 25.1562 14.2188C25.1562 13.3485 25.502 12.5139 26.1173 11.8986C26.7327 11.2832 27.5673 10.9375 28.4375 10.9375Z" fill="#E2A140"/>
<path d="M47.0312 14.2188C47.0312 13.1371 46.7105 12.0798 46.1096 11.1805C45.5087 10.2811 44.6546 9.5802 43.6553 9.16629C42.656 8.75237 41.5564 8.64407 40.4956 8.85508C39.4348 9.0661 38.4603 9.58694 37.6955 10.3518C36.9307 11.1166 36.4098 12.091 36.1988 13.1519C35.9878 14.2127 36.0961 15.3123 36.51 16.3116C36.924 17.3108 37.6249 18.1649 38.5242 18.7659C39.4236 19.3668 40.4809 19.6875 41.5625 19.6875C43.0129 19.6875 44.4039 19.1113 45.4295 18.0857C46.4551 17.0602 47.0312 15.6692 47.0312 14.2188ZM38.2812 14.2188C38.2812 13.5698 38.4737 12.9354 38.8342 12.3958C39.1948 11.8562 39.7073 11.4356 40.3068 11.1873C40.9064 10.9389 41.5661 10.8739 42.2026 11.0006C42.8391 11.1272 43.4238 11.4397 43.8827 11.8986C44.3416 12.3574 44.6541 12.9421 44.7807 13.5786C44.9073 14.2151 44.8423 14.8749 44.594 15.4744C44.3456 16.074 43.9251 16.5865 43.3855 16.947C42.8459 17.3076 42.2115 17.5 41.5625 17.5C40.6923 17.5 39.8577 17.1543 39.2423 16.5389C38.627 15.9236 38.2812 15.089 38.2812 14.2188Z" fill="#E2A140"/>
<path d="M35 31.7188C36.0816 31.7188 37.139 31.398 38.0383 30.7971C38.9376 30.1962 39.6386 29.3421 40.0525 28.3428C40.4664 27.3435 40.5747 26.2439 40.3637 25.1831C40.1527 24.1223 39.6318 23.1478 38.867 22.383C38.1022 21.6182 37.1277 21.0973 36.0669 20.8863C35.0061 20.6753 33.9065 20.7836 32.9072 21.1975C31.9079 21.6115 31.0538 22.3124 30.4529 23.2117C29.852 24.1111 29.5313 25.1684 29.5312 26.25C29.5312 27.7004 30.1074 29.0914 31.133 30.117C32.1586 31.1426 33.5496 31.7188 35 31.7188ZM35 22.9688C35.649 22.9688 36.2834 23.1612 36.823 23.5217C37.3626 23.8823 37.7831 24.3948 38.0315 24.9943C38.2798 25.5939 38.3448 26.2536 38.2182 26.8901C38.0916 27.5266 37.7791 28.1113 37.3202 28.5702C36.8613 29.0291 36.2766 29.3416 35.6401 29.4682C35.0036 29.5948 34.3439 29.5298 33.7443 29.2815C33.1448 29.0331 32.6323 28.6126 32.2717 28.073C31.9112 27.5334 31.7188 26.899 31.7188 26.25C31.7188 25.3798 32.0645 24.5452 32.6798 23.9298C33.2952 23.3145 34.1298 22.9688 35 22.9688Z" fill="#E2A140"/>
<path d="M55.7813 19.6875C56.8629 19.6875 57.9202 19.3668 58.8195 18.7659C59.7189 18.1649 60.4198 17.3108 60.8337 16.3116C61.2476 15.3123 61.3559 14.2127 61.1449 13.1519C60.9339 12.091 60.4131 11.1166 59.6483 10.3518C58.8834 9.58694 57.909 9.0661 56.8482 8.85508C55.7873 8.64407 54.6877 8.75237 53.6885 9.16629C52.6892 9.5802 51.8351 10.2811 51.2342 11.1805C50.6332 12.0798 50.3125 13.1371 50.3125 14.2188C50.3125 15.6692 50.8887 17.0602 51.9143 18.0857C52.9399 19.1113 54.3309 19.6875 55.7813 19.6875ZM55.7813 10.9375C56.4302 10.9375 57.0646 11.1299 57.6042 11.4905C58.1438 11.851 58.5644 12.3635 58.8127 12.9631C59.0611 13.5626 59.1261 14.2224 58.9995 14.8589C58.8729 15.4954 58.5603 16.0801 58.1015 16.5389C57.6426 16.9978 57.0579 17.3103 56.4214 17.437C55.7849 17.5636 55.1251 17.4986 54.5256 17.2502C53.926 17.0019 53.4135 16.5813 53.053 16.0417C52.6924 15.5021 52.5 14.8677 52.5 14.2188C52.5 13.3485 52.8457 12.5139 53.4611 11.8986C54.0764 11.2832 54.911 10.9375 55.7813 10.9375Z" fill="#E2A140"/>
<path d="M57.9688 20.7817H53.5938C53.1694 20.7835 52.7456 20.8127 52.325 20.8692C51.5434 19.8275 50.4157 19.0989 49.1448 18.8146C47.8739 18.5302 46.5433 18.7087 45.3923 19.318C44.2413 19.9273 43.3455 20.9273 42.866 22.1381C42.3866 23.349 42.355 24.6912 42.777 25.9232C43.1989 27.1553 44.0467 28.1963 45.1677 28.8591C46.2888 29.5218 47.6096 29.7627 48.8924 29.5384C50.1753 29.3142 51.336 28.6395 52.1658 27.6357C52.9955 26.632 53.4398 25.3651 53.4188 24.0629C53.4179 23.6957 53.3813 23.3293 53.3094 22.9692H53.6375H58.0125C60.0431 22.9692 61.9905 23.7758 63.4263 25.2116C64.8621 26.6475 65.6688 28.5949 65.6688 30.6254V31.7192H54.5563C53.1776 31.0029 51.6473 30.6279 50.0938 30.6254H45.7188C45.3908 30.6083 45.0623 30.6083 44.7344 30.6254C42.7111 30.8365 40.8017 31.6651 39.2656 32.9989C38.5811 32.866 37.8847 32.8037 37.1875 32.8129H32.8125C32.1064 32.8166 31.4027 32.8936 30.7125 33.0426C29.1773 31.7092 27.2669 30.8839 25.2437 30.6801C24.9244 30.6417 24.6029 30.6234 24.2812 30.6254H19.9062C18.3527 30.6279 16.8224 31.0029 15.4437 31.7192H4.375V30.6254C4.375 28.5949 5.18164 26.6475 6.61746 25.2116C8.05329 23.7758 10.0007 22.9692 12.0312 22.9692H16.4062H16.7344C16.6625 23.3293 16.6259 23.6957 16.625 24.0629C16.6039 25.3651 17.0482 26.632 17.878 27.6357C18.7078 28.6395 19.8685 29.3142 21.1513 29.5384C22.4342 29.7627 23.755 29.5218 24.876 28.8591C25.9971 28.1963 26.8449 27.1553 27.2668 25.9232C27.6887 24.6912 27.6571 23.349 27.1777 22.1381C26.6983 20.9273 25.8025 19.9273 24.6515 19.318C23.5005 18.7087 22.1698 18.5302 20.8989 18.8146C19.6281 19.0989 18.5004 19.8275 17.7188 20.8692C17.2837 20.8108 16.8452 20.7815 16.4062 20.7817H12.0312C9.42053 20.7817 6.91673 21.8188 5.07067 23.6648C3.22461 25.5109 2.1875 28.0147 2.1875 30.6254V32.8129C2.1875 33.103 2.30273 33.3812 2.50785 33.5863C2.71297 33.7914 2.99117 33.9067 3.28125 33.9067H12.6109C10.9815 35.7052 10.074 38.0423 10.0625 40.4692V42.6567C10.0625 42.9468 10.1777 43.225 10.3829 43.4301C10.588 43.6352 10.8662 43.7504 11.1562 43.7504H22.9688V44.8442C22.9688 45.1343 23.084 45.4125 23.2891 45.6176C23.4942 45.8227 23.7724 45.9379 24.0625 45.9379H45.9375C46.2276 45.9379 46.5058 45.8227 46.7109 45.6176C46.916 45.4125 47.0312 45.1343 47.0312 44.8442V43.7504H58.8438C59.1338 43.7504 59.412 43.6352 59.6171 43.4301C59.8223 43.225 59.9375 42.9468 59.9375 42.6567V40.4692C59.926 38.0423 59.0185 35.7052 57.3891 33.9067H66.7188C67.0088 33.9067 67.287 33.7914 67.4921 33.5863C67.6973 33.3812 67.8125 33.103 67.8125 32.8129V30.6254C67.8125 28.0147 66.7754 25.5109 64.9293 23.6648C63.0833 21.8188 60.5795 20.7817 57.9688 20.7817ZM47.9062 27.3442C47.2573 27.3442 46.6229 27.1517 46.0833 26.7912C45.5437 26.4306 45.1231 25.9182 44.8748 25.3186C44.6264 24.719 44.5614 24.0593 44.688 23.4228C44.8147 22.7863 45.1272 22.2016 45.5861 21.7427C46.0449 21.2838 46.6296 20.9713 47.2661 20.8447C47.9026 20.7181 48.5624 20.7831 49.1619 21.0314C49.7615 21.2798 50.274 21.7004 50.6345 22.24C50.9951 22.7796 51.1875 23.414 51.1875 24.0629C51.1875 24.9332 50.8418 25.7678 50.2264 26.3831C49.6111 26.9985 48.7765 27.3442 47.9062 27.3442ZM22.0938 20.7817C22.7427 20.7817 23.3771 20.9741 23.9167 21.3347C24.4563 21.6952 24.8769 22.2077 25.1252 22.8072C25.3736 23.4068 25.4386 24.0666 25.312 24.7031C25.1853 25.3396 24.8728 25.9242 24.4139 26.3831C23.9551 26.842 23.3704 27.1545 22.7339 27.2811C22.0974 27.4077 21.4376 27.3428 20.8381 27.0944C20.2385 26.8461 19.726 26.4255 19.3655 25.8859C19.0049 25.3463 18.8125 24.7119 18.8125 24.0629C18.8125 23.1927 19.1582 22.3581 19.7736 21.7427C20.3889 21.1274 21.2235 20.7817 22.0938 20.7817ZM12.25 40.4692C12.2511 39.0985 12.62 37.7533 13.3184 36.574C14.0168 35.3946 15.019 34.4243 16.2203 33.7645C17.346 33.1339 18.616 32.806 19.9062 32.8129H24.2812C24.5362 32.7969 24.7919 32.7969 25.0469 32.8129C26.1765 32.934 27.2643 33.3078 28.2297 33.9067C26.8026 34.6594 25.5824 35.7513 24.6764 37.0864C23.7705 38.4214 23.2066 39.9587 23.0344 41.5629H12.25V40.4692ZM44.8438 43.7504H25.1562V42.6567C25.1562 40.6261 25.9629 38.6787 27.3987 37.2429C28.8345 35.8071 30.7819 35.0004 32.8125 35.0004H37.1875C39.2181 35.0004 41.1655 35.8071 42.6013 37.2429C44.0371 38.6787 44.8438 40.6261 44.8438 42.6567V43.7504ZM57.75 41.5629H46.9656C46.7934 39.9587 46.2295 38.4214 45.3236 37.0864C44.4176 35.7513 43.1974 34.6594 41.7703 33.9067C42.7446 33.3098 43.8391 32.9363 44.975 32.8129H45.7188H50.0938C51.3889 32.8059 52.6633 33.1377 53.7906 33.7754C54.9883 34.4358 55.9872 35.405 56.6835 36.5821C57.3798 37.7593 57.7481 39.1015 57.75 40.4692V41.5629Z" fill="#E2A140"/>
<path d="M67.725 46.6156C67.6429 46.4159 67.5036 46.2449 67.3245 46.1242C67.1455 46.0036 66.9347 45.9386 66.7187 45.9375H49.2187C48.9286 45.9375 48.6505 46.0527 48.4453 46.2579C48.2402 46.463 48.125 46.7412 48.125 47.0312V49.0766C43.9462 50.7103 39.4857 51.5021 35 51.4062C30.5142 51.5021 26.0537 50.7103 21.875 49.0766V47.0312C21.875 46.7412 21.7597 46.463 21.5546 46.2579C21.3495 46.0527 21.0713 45.9375 20.7812 45.9375H3.28122C3.06529 45.9386 2.8545 46.0036 2.67543 46.1242C2.49636 46.2449 2.35702 46.4159 2.27497 46.6156C2.19121 46.8148 2.16833 47.0343 2.2092 47.2465C2.25008 47.4587 2.35289 47.654 2.50466 47.8078L6.11403 51.4062L2.50466 55.0047C2.35289 55.1585 2.25008 55.3538 2.2092 55.566C2.16833 55.7782 2.19121 55.9977 2.27497 56.1969C2.35702 56.3966 2.49636 56.5676 2.67543 56.6883C2.8545 56.8089 3.06529 56.8739 3.28122 56.875H17.8062C21.1859 59.5656 27.65 61.25 35 61.25C42.35 61.25 48.814 59.5656 52.1937 56.875H66.7187C66.9347 56.8739 67.1455 56.8089 67.3245 56.6883C67.5036 56.5676 67.6429 56.3966 67.725 56.1969C67.8087 55.9977 67.8316 55.7782 67.7907 55.566C67.7499 55.3538 67.6471 55.1585 67.4953 55.0047L63.8859 51.4062L67.4953 47.8078C67.6471 47.654 67.7499 47.4587 67.7907 47.2465C67.8316 47.0343 67.8087 46.8148 67.725 46.6156ZM8.43278 52.1828C8.5353 52.0811 8.61667 51.9602 8.6722 51.8269C8.72772 51.6936 8.75631 51.5506 8.75631 51.4062C8.75631 51.2619 8.72772 51.1189 8.6722 50.9856C8.61667 50.8523 8.5353 50.7314 8.43278 50.6297L5.91716 48.125H16.4062V54.6875H5.91716L8.43278 52.1828ZM51.4062 54.6875C48.7922 57.2906 42.1531 59.0625 35 59.0625C27.8468 59.0625 21.2078 57.2688 18.5937 54.6875V49.7875C22.1812 52.1719 28.2625 53.5938 35 53.5938C41.7375 53.5938 47.8187 52.1719 51.4062 49.7875V54.6875ZM61.5672 50.6516C61.4647 50.7532 61.3833 50.8742 61.3278 51.0075C61.2722 51.1408 61.2436 51.2837 61.2436 51.4281C61.2436 51.5725 61.2722 51.7155 61.3278 51.8488C61.3833 51.982 61.4647 52.103 61.5672 52.2047L64.0828 54.6875H53.5937V48.125H64.0828L61.5672 50.6516Z" fill="#E2A140"/>
</svg>
