<svg width="70" height="70" viewBox="0 0 70 70" fill="none" xmlns="http://www.w3.org/2000/svg">
<path d="M68.3757 34.8216H63.0351C59.7703 25.7297 51.7811 6 43.9757 6C39.7703 6 35.0568 11.5676 29.9757 22.5189C27.2189 17.373 23.9865 13.1784 20.7541 13.1784C15.8351 13.1784 10.873 22.9405 7.52162 31.3081C6.95946 31.4162 6.41892 31.5351 5.92162 31.6757C5.68378 31.7405 5.43514 31.6649 5.26216 31.4703C4.44054 30.5189 3.0027 30.4108 2.05135 31.2324L1.07838 32.0649C0.127027 32.8865 0.018919 34.3243 0.840541 35.2757L0.97027 35.427C1.11081 35.5892 1.16487 35.8054 1.11081 36.0108C-0.37027 41.3189 -0.37027 52.9946 1.11081 58.3135C1.16487 58.5189 1.11081 58.7351 0.97027 58.8973L0.851351 59.0378C0.451351 59.5027 0.256757 60.0865 0.3 60.6919C0.343243 61.2973 0.624324 61.8486 1.08919 62.2486L2.06216 63.0811C3.01351 63.9027 4.45135 63.7946 5.27297 62.8432C5.43514 62.6486 5.68378 62.573 5.92162 62.6378C8.36487 63.3081 11.6514 63.6432 14.9378 63.6432C18.2243 63.6432 21.5108 63.3081 23.9432 62.6378C24.1811 62.573 24.4297 62.6486 24.6027 62.8432C25.4243 63.7946 26.8622 63.9027 27.8135 63.0811L28.7865 62.2486C29.2514 61.8486 29.5216 61.2973 29.5757 60.6919C29.6189 60.0865 29.4243 59.5027 29.0243 59.0378L28.9054 58.8973C28.7649 58.7351 28.7108 58.5189 28.7649 58.3135C30.2459 52.9946 30.2459 41.3189 28.7649 36.0108C28.7108 35.8162 28.7649 35.5892 28.9054 35.427L29.0351 35.2757C29.8568 34.3243 29.7486 32.8865 28.7973 32.0649L27.8243 31.2324C26.873 30.4108 25.4351 30.5189 24.6135 31.4703C24.4514 31.6649 24.2027 31.7405 23.9649 31.6757C20.1054 30.6162 14.1595 30.4 9.41351 31.0162C13.6405 20.7027 17.7595 14.8108 20.7757 14.8108C24.7757 14.8108 29.9541 24.9513 33.6189 34.8324H32.9811C32.7649 34.8324 32.5595 34.9189 32.4081 35.0703C32.2568 35.2216 32.1703 35.427 32.1703 35.6432V61.9135C32.1703 62.8757 32.9487 63.654 33.9108 63.654H38.4946C39.4568 63.654 40.2351 62.8757 40.2351 61.9135V60.7135C40.2351 60.6486 40.2892 60.5946 40.3541 60.5946H46.5487C46.6135 60.5946 46.6676 60.6486 46.6676 60.7135V61.9135C46.6676 62.8757 47.4459 63.654 48.4081 63.654H53.0027C53.9649 63.654 54.7432 62.8757 54.7432 61.9135V60.7135C54.7432 60.6486 54.7973 60.5946 54.8622 60.5946H61.046C61.1108 60.5946 61.1649 60.6486 61.1649 60.7135V61.9135C61.1649 62.8757 61.9432 63.654 62.9054 63.654H67.5C68.4622 63.654 69.2405 62.8757 69.2405 61.9135V35.6432C69.1865 35.1784 68.8189 34.8216 68.3757 34.8216ZM23.5108 33.2324C24.3432 33.4595 25.2514 33.1784 25.8243 32.5189C26.0622 32.2486 26.473 32.2162 26.7432 32.4541L27.7162 33.2865C27.9865 33.5243 28.0189 33.9351 27.7811 34.2054L27.6514 34.3568C27.1541 34.9297 26.9811 35.7081 27.1865 36.4324C28.5811 41.4378 28.5811 52.8541 27.1865 57.8595C26.9811 58.5838 27.1649 59.3622 27.6622 59.9351L27.7811 60.0757C27.9 60.2054 27.9541 60.3784 27.9432 60.5513C27.9324 60.7243 27.8459 60.8865 27.7162 60.9946L26.7432 61.827C26.473 62.0649 26.0622 62.0324 25.8243 61.7622C25.2514 61.1027 24.3541 60.8216 23.5108 61.0486C18.9378 62.3027 10.9162 62.3027 6.34324 61.0486C6.14865 60.9946 5.95405 60.973 5.75946 60.973C5.11081 60.973 4.47297 61.2541 4.04054 61.7622C3.92162 61.8919 3.77027 61.9784 3.5973 61.9892C3.42432 62.0324 3.24054 61.9676 3.11081 61.8486L2.13784 61.0162C2.00811 60.8973 1.92162 60.7459 1.91081 60.573C1.9 60.4 1.95405 60.227 2.07297 60.0973L2.19189 59.9568C2.7 59.373 2.87297 58.6054 2.67838 57.8703C1.28378 52.8541 1.28378 41.4378 2.67838 36.4432C2.88378 35.7189 2.7 34.9405 2.21351 34.3676L2.08378 34.2162C1.84595 33.9459 1.87838 33.5351 2.14865 33.2973L3.12162 32.4649C3.25135 32.3568 3.42432 32.2919 3.5973 32.3135C3.77027 32.3243 3.93243 32.4108 4.04054 32.5405C4.61351 33.2 5.51081 33.4811 6.35405 33.2541C10.9162 31.9784 18.9378 31.9784 23.5108 33.2324ZM43.9541 36.4432V41.3189H33.7703V36.4432H43.9541ZM45.5757 36.4432H55.7595V41.3189H45.5757V36.4432ZM67.5649 42.9405V47.8162H63.2838V42.9405H67.5649ZM61.6622 47.8162H51.4784V42.9405H61.6622V47.8162ZM39.673 42.9405H49.8568V47.8162H39.673V42.9405ZM43.9541 49.4378V54.3135H33.7703V49.4378H43.9541ZM55.7595 54.3135H45.5757V49.4378H55.7595V54.3135ZM38.0514 42.9405V47.8162H33.7703V42.9405H38.0514ZM57.3811 54.3135V49.4378H67.5649V54.3135H57.3811ZM67.5649 41.3189H57.3811V36.4432H67.5649V41.3189ZM30.9162 24.3459C35.7919 13.5568 40.4189 7.62162 43.9757 7.62162C49.4784 7.62162 56.4622 21.4703 61.3054 34.8216H56.5703H44.7649H35.327C34.1919 31.7081 32.6676 27.9027 30.9162 24.3459ZM67.446 62.0216H62.8514C62.7865 62.0216 62.7324 61.9676 62.7324 61.9027V60.7027C62.7324 59.7405 61.9541 58.9622 60.9919 58.9622H54.8081C53.846 58.9622 53.0676 59.7405 53.0676 60.7027V61.9027C53.0676 61.9676 53.0135 62.0216 52.9487 62.0216H48.3541C48.2892 62.0216 48.2351 61.9676 48.2351 61.9027V60.7027C48.2351 59.7405 47.4568 58.9622 46.4946 58.9622H40.3216C39.3595 58.9622 38.5811 59.7405 38.5811 60.7027V61.9027C38.5811 61.9568 38.5378 62.0216 38.4622 62.0216H33.8784C33.8135 62.0216 33.7595 61.9676 33.7595 61.9027V55.9351H67.5649V61.9027C67.5649 61.9676 67.5108 62.0216 67.446 62.0216Z" fill="#E2A140"/>
<path d="M7.86803 44.9621C8.09506 45.881 9.26263 50.5188 10.5599 51.8053C11.3491 52.5945 12.3761 53.0161 13.3924 53.0161C13.9005 53.0161 14.3978 52.908 14.8518 52.7026C15.2194 52.8215 15.6086 52.8864 15.9978 52.8864C17.0788 52.8864 18.2032 52.454 19.0572 51.5999C20.4951 50.1621 21.8464 44.7134 21.9978 44.0972C22.0842 43.7621 21.9329 43.4053 21.6518 43.2215C21.3599 43.0377 20.9815 43.0594 20.7113 43.2648C19.187 44.4756 18.0302 44.5837 16.9059 44.6918C15.9437 44.7783 14.9599 44.8756 13.987 45.6323C13.5113 45.5026 13.0464 45.4486 12.5815 45.4053C11.5653 45.308 10.5275 45.2107 9.15452 44.1296C8.88425 43.9134 8.50587 43.8918 8.21398 44.0864C7.92209 44.281 7.78155 44.6269 7.86803 44.9621ZM17.0464 46.3134C17.8572 46.2377 18.7978 46.1513 19.8897 45.6648C19.3167 47.6432 18.5275 49.8378 17.9005 50.454C17.1221 51.2323 16.0194 51.4594 15.1437 51.1026L17.1005 49.1459C17.414 48.8323 17.414 48.3134 17.1005 47.9999C16.787 47.6864 16.268 47.6864 15.9545 47.9999L14.0086 49.9567C13.6518 49.081 13.8788 47.9783 14.6572 47.1999C15.3707 46.4648 16.041 46.3999 17.0464 46.3134ZM12.4194 47.0269C12.5383 47.0377 12.6464 47.0594 12.7653 47.0702C12.0086 48.454 12.0518 50.108 12.9383 51.3405C12.4951 51.2432 12.0518 51.0269 11.6951 50.6702C11.1761 50.1513 10.4842 48.281 9.95452 46.4972C10.8951 46.8864 11.7167 46.9621 12.4194 47.0269Z" fill="#E2A140"/>
<path d="M14.9266 58.3675C21.1104 58.3675 26.1483 53.3405 26.1483 47.1567C26.1483 40.9729 21.1104 35.9351 14.9266 35.9351C8.74285 35.9351 3.71582 40.9729 3.71582 47.1567C3.71582 53.3405 8.74285 58.3675 14.9266 58.3675ZM14.9266 37.5567C20.2239 37.5567 24.5266 41.8594 24.5266 47.1567C24.5266 52.4432 20.2239 56.7459 14.9266 56.7459C9.64014 56.7459 5.33744 52.4432 5.33744 47.1567C5.33744 41.8702 9.64014 37.5567 14.9266 37.5567Z" fill="#E2A140"/>
<path d="M21.024 17.0272C20.8402 16.9623 20.6456 16.9623 20.4726 17.0272C18.2348 17.8488 15.2618 23.3839 13.6943 26.6055C13.4997 27.0055 13.6618 27.492 14.0726 27.6866C14.1916 27.7407 14.3105 27.7731 14.4294 27.7731C14.7321 27.7731 15.0132 27.6001 15.1537 27.3191C17.6186 22.238 19.6726 19.4272 20.7429 18.7028C21.1645 18.9839 21.9753 19.7515 23.2943 21.7839C23.5429 22.1623 24.0402 22.2704 24.4186 22.0218C24.797 21.7839 24.9051 21.2758 24.6564 20.8974C23.2078 18.6596 22.0186 17.3947 21.024 17.0272Z" fill="#E2A140"/>
<path d="M52.7005 23.957C52.841 24.2488 53.1329 24.411 53.4356 24.411C53.5545 24.411 53.6735 24.3894 53.7924 24.3353C54.1924 24.1407 54.3654 23.6543 54.1708 23.2543C53.5654 22.0002 52.9275 20.757 52.2897 19.5786C52.0735 19.1894 51.587 19.038 51.187 19.2543C50.7978 19.4705 50.6464 19.957 50.8626 20.357C51.4789 21.5029 52.1059 22.7245 52.7005 23.957Z" fill="#E2A140"/>
<path d="M48.3651 16.1081C48.6137 16.4865 49.111 16.5946 49.4894 16.3459C49.8678 16.0973 49.9759 15.6 49.7273 15.2216C46.1921 9.77295 44.5164 9.77295 43.9759 9.77295C43.7273 9.77295 41.457 9.95673 37.4246 16.4757C37.1867 16.854 37.3056 17.3513 37.684 17.5892C37.8137 17.6757 37.9651 17.7081 38.1056 17.7081C38.3759 17.7081 38.6462 17.5675 38.7975 17.3189C41.8678 12.3459 43.7056 11.5027 44.03 11.3838C44.3651 11.4702 45.6732 11.9567 48.3651 16.1081Z" fill="#E2A140"/>
</svg>
