<svg width="70" height="70" viewBox="0 0 70 70" fill="none" xmlns="http://www.w3.org/2000/svg">
<path d="M30.5003 30.0462C30.3026 30.5732 29.7097 30.8368 29.1788 30.6391C28.6517 30.4376 28.3881 29.8446 28.5858 29.3138L32.4924 19.0668C32.6747 18.5824 33.1513 18.2646 33.6667 18.2646C34.1821 18.2646 34.6587 18.5824 34.841 19.0708L38.7088 29.3215C38.9065 29.8486 38.639 30.4377 38.112 30.6392C37.5849 30.8369 36.992 30.5694 36.7943 30.0425L36.0812 28.1549H31.2212L30.5003 30.0462ZM54.7147 24.0428L69.2286 27.7788C69.6782 27.8911 69.9999 28.3019 69.9999 28.7669V36.1576C69.9999 36.7235 69.5425 37.1848 68.9767 37.1848C68.4109 37.1848 67.9496 36.7235 67.9496 36.1576V33.2007H54.7147V63.5383H67.9498V40.8044C67.9498 40.2385 68.4111 39.7774 68.9768 39.7774C69.5427 39.7774 70 40.2385 70 40.8044V64.5656C70 65.1315 69.5427 65.5885 68.9768 65.5885C46.3243 65.5885 23.6757 65.5885 1.02703 65.5885C0.461152 65.5885 0 65.1313 0 64.5656V60.5853C0 60.0156 0.461152 59.5583 1.02703 59.5583C1.59277 59.5583 2.0501 60.0156 2.0501 60.5853V63.5386H15.285V33.2008H2.0501V55.9386C2.0501 56.5045 1.59277 56.9657 1.02703 56.9657C0.461152 56.9657 0 56.5045 0 55.9386V28.7672C0 28.3098 0.310078 27.8952 0.775059 27.7791L15.285 24.0428C15.285 19.152 15.285 14.2609 15.285 9.37004C15.285 8.89344 15.6222 8.46715 16.1027 8.36626L34.7713 4.43641C34.9109 4.40538 35.0581 4.40155 35.2092 4.43258L53.8273 8.35081C54.3272 8.42053 54.7147 8.85065 54.7147 9.37004V24.0428ZM67.9496 31.1506V29.5578L54.7147 26.151V31.1504L67.9496 31.1506ZM15.285 31.1506V26.1512L2.04996 29.5578V31.1506H15.285ZM52.6646 11.7536V10.1995L34.9999 6.47899L17.3391 10.1995V11.7536H52.6646ZM52.6646 13.8037H17.3391V63.5386H26.2916V57.2834C26.2916 56.7175 26.7527 56.2603 27.3186 56.2603H42.685C43.2508 56.2603 43.7082 56.7177 43.7082 57.2834V63.5386H52.6645L52.6646 13.8037ZM42.685 45.7382H49.4904C50.0563 45.7382 50.5136 46.1954 50.5136 46.7611V53.5667C50.5136 54.1326 50.0563 54.5937 49.4904 54.5937H42.685C42.1191 54.5937 41.6579 54.1326 41.6579 53.5667V46.7611C41.6581 46.1954 42.1192 45.7382 42.685 45.7382ZM48.4635 47.7881H43.7083V52.5398H48.4635V47.7881ZM42.685 35.0417H49.4904C50.0563 35.0417 50.5136 35.4989 50.5136 36.0688V42.8704C50.5136 43.4399 50.0563 43.8974 49.4904 43.8974H42.685C42.1191 43.8974 41.6579 43.4399 41.6579 42.8704V36.0688C41.6581 35.4988 42.1192 35.0417 42.685 35.0417ZM48.4635 37.0917H43.7083V41.847H48.4635V37.0917ZM41.6581 58.3103H28.3417V63.5384H41.6581V58.3103ZM31.5971 45.7382H38.4025C38.9684 45.7382 39.4296 46.1954 39.4296 46.7611V53.5667C39.4296 54.1326 38.9684 54.5937 38.4025 54.5937H31.5971C31.0312 54.5937 30.574 54.1326 30.574 53.5667V46.7611C30.574 46.1954 31.0313 45.7382 31.5971 45.7382ZM37.3795 47.7881H32.6242V52.5398H37.3795V47.7881ZM31.5971 35.0417H38.4025C38.9684 35.0417 39.4296 35.4989 39.4296 36.0688V42.8704C39.4296 43.4399 38.9684 43.8974 38.4025 43.8974H31.5971C31.0312 43.8974 30.574 43.4399 30.574 42.8704V36.0688C30.574 35.4988 31.0313 35.0417 31.5971 35.0417ZM37.3795 37.0917H32.6242V41.847H37.3795V37.0917ZM20.5131 45.7382H27.3186C27.8845 45.7382 28.3417 46.1954 28.3417 46.7611V53.5667C28.3417 54.1326 27.8843 54.5937 27.3186 54.5937H20.5131C19.9473 54.5937 19.4861 54.1326 19.4861 53.5667V46.7611C19.4861 46.1954 19.9473 45.7382 20.5131 45.7382ZM26.2916 47.7881H21.5363V52.5398H26.2916V47.7881ZM57.9314 35.0417H64.7369C65.3028 35.0417 65.7599 35.4989 65.7599 36.0688V42.8704C65.7599 43.4399 65.3026 43.8974 64.7369 43.8974H57.9314C57.3655 43.8974 56.9044 43.4399 56.9044 42.8704V36.0688C56.9044 35.4988 57.3655 35.0417 57.9314 35.0417ZM63.7098 37.0917H58.9545V41.847H63.7098V37.0917ZM57.9314 45.7382H64.7369C65.3028 45.7382 65.7599 46.1954 65.7599 46.7611V53.5667C65.7599 54.1326 65.3026 54.5937 64.7369 54.5937H57.9314C57.3655 54.5937 56.9044 54.1326 56.9044 53.5667V46.7611C56.9044 46.1954 57.3655 45.7382 57.9314 45.7382ZM63.7098 47.7881H58.9545V52.5398H63.7098V47.7881ZM5.26668 35.0417H12.0721C12.638 35.0417 13.0952 35.4989 13.0952 36.0688V42.8704C13.0952 43.4399 12.6379 43.8974 12.0721 43.8974H5.26668C4.7008 43.8974 4.23965 43.4399 4.23965 42.8704V36.0688C4.23979 35.4988 4.70094 35.0417 5.26668 35.0417ZM11.0452 37.0917H6.28988V41.847H11.0452V37.0917ZM5.26668 45.7382H12.0721C12.638 45.7382 13.0952 46.1954 13.0952 46.7611V53.5667C13.0952 54.1326 12.6379 54.5937 12.0721 54.5937H5.26668C4.7008 54.5937 4.23965 54.1326 4.23965 53.5667V46.7611C4.23979 46.1954 4.70094 45.7382 5.26668 45.7382ZM11.0452 47.7881H6.28988V52.5398H11.0452V47.7881ZM20.5131 35.0417H27.3186C27.8845 35.0417 28.3417 35.4989 28.3417 36.0688V42.8704C28.3417 43.4399 27.8843 43.8974 27.3186 43.8974H20.5131C19.9473 43.8974 19.4861 43.4399 19.4861 42.8704V36.0688C19.4861 35.4988 19.9473 35.0417 20.5131 35.0417ZM26.2916 37.0917H21.5363V41.847H26.2916V37.0917ZM49.1455 26.8681C49.1455 27.9261 48.7192 28.8795 48.0255 29.5732C47.3356 30.2633 46.3784 30.6934 45.3243 30.6934C43.9253 30.6934 41.7859 30.7012 41.7821 30.7012C41.2202 30.7049 40.7472 30.2437 40.7512 29.6819C40.7512 26.2131 40.7512 22.7484 40.7512 19.2837C40.7512 18.7178 41.2124 18.2607 41.7782 18.2607H44.7973C45.739 18.2607 46.5955 18.6444 47.2117 19.2604C47.8317 19.8806 48.2154 20.733 48.2154 21.6787C48.2154 22.4538 47.9557 23.167 47.5217 23.7406C47.6999 23.8685 47.8704 24.0117 48.0255 24.1667C48.7193 24.8567 49.1455 25.8139 49.1455 26.8681ZM42.8013 23.0468C43.4678 23.0468 44.1306 23.0429 44.7973 23.0429C45.1732 23.0429 45.5142 22.8918 45.7624 22.6438C46.0104 22.3958 46.1614 22.0547 46.1614 21.6787C46.1614 21.2989 46.0104 20.9579 45.7624 20.7098C45.5144 20.4619 45.1732 20.3106 44.7973 20.3106H42.8013V23.0468ZM46.5761 28.1236C46.8978 27.8021 47.0954 27.3602 47.0954 26.868C47.0954 26.3796 46.8977 25.9379 46.5761 25.6162C46.2544 25.2946 45.8125 25.0969 45.3243 25.0969H42.8013V28.6546C43.8207 28.6468 45.2391 28.6429 45.3243 28.6429C45.8125 28.643 46.2584 28.4455 46.5761 28.1236ZM20.8541 19.2954C20.8541 18.7295 21.3154 18.2684 21.8812 18.2684C22.4469 18.2684 22.9042 18.7295 22.9042 19.2954V28.6702L25.5202 28.6585C26.0821 28.6585 26.5396 29.1161 26.5396 29.6818C26.5396 30.2436 26.0822 30.701 25.5202 30.701H21.9703C21.3697 30.701 20.8541 30.2824 20.8541 29.6818V19.2954ZM33.6629 21.7446L32.0041 26.1006H35.3099L33.6629 21.7446Z" fill="#E2A140"/>
</svg>
