<svg width="70" height="70" viewBox="0 0 70 70" fill="none" xmlns="http://www.w3.org/2000/svg">
<g clip-path="url(#clip0_148_210)">
<path d="M39.9727 21.6665C39.9727 22.2329 40.4316 22.6919 40.998 22.6919H54.789C55.3554 22.6919 55.8144 22.2329 55.8144 21.6665C55.8144 21.1001 55.3554 20.6411 54.789 20.6411H40.998C40.4316 20.6411 39.9727 21.1001 39.9727 21.6665Z" fill="#E2A140"/>
<path d="M18.0684 37.346H27.7754C28.3417 37.346 28.8008 36.887 28.8008 36.3206V32.8433C28.8008 32.2768 28.3417 31.8179 27.7754 31.8179H18.0684C17.5021 31.8179 17.043 32.2768 17.043 32.8433V36.3206C17.043 36.887 17.5021 37.346 18.0684 37.346ZM19.0937 33.8688H26.75V35.2953H19.0937V33.8688Z" fill="#E2A140"/>
<path d="M10.9375 46.5405C9.24563 46.5405 7.86914 47.917 7.86914 49.6089C7.86914 51.3008 9.24563 52.6773 10.9375 52.6773C12.6294 52.6773 14.0059 51.3008 14.0059 49.6089C14.0059 47.917 12.6294 46.5405 10.9375 46.5405ZM10.9375 50.6266C10.3764 50.6266 9.91992 50.1701 9.91992 49.609C9.91992 49.0479 10.3764 48.5914 10.9375 48.5914C11.4986 48.5914 11.9551 49.0479 11.9551 49.609C11.9551 50.1701 11.4986 50.6266 10.9375 50.6266Z" fill="#E2A140"/>
<path d="M34.9082 46.5405C33.2163 46.5405 31.8398 47.917 31.8398 49.6089C31.8398 51.3008 33.2163 52.6773 34.9082 52.6773C36.6001 52.6773 37.9766 51.3008 37.9766 49.6089C37.9766 47.917 36.6001 46.5405 34.9082 46.5405ZM34.9082 50.6266C34.3471 50.6266 33.8906 50.1701 33.8906 49.609C33.8906 49.0479 34.3471 48.5914 34.9082 48.5914C35.4693 48.5914 35.9258 49.0479 35.9258 49.609C35.9258 50.1701 35.4693 50.6266 34.9082 50.6266Z" fill="#E2A140"/>
<path d="M68.9746 54.1297H68.4433V50.996C68.4433 50.4296 67.9844 49.9706 67.4179 49.9706C66.8515 49.9706 66.3925 50.4296 66.3925 50.996V54.1297H50.5859V42.4168H54.9518V45.9154C54.9518 46.4818 55.4107 46.9408 55.9772 46.9408H61.0014C61.5679 46.9408 62.0268 46.4818 62.0268 45.9154V42.4168H66.3927V46.2109C66.3927 46.7773 66.8516 47.2363 67.4181 47.2363C67.9845 47.2363 68.4435 46.7773 68.4435 46.2109V41.3914C68.4435 40.825 67.9845 40.366 67.4181 40.366H65.8618C66.7952 33.5909 65.9556 26.6286 63.337 20.1919C64.8155 19.9029 65.9349 18.5974 65.9349 17.0355C65.9349 15.262 64.4921 13.8193 62.7188 13.8193H44.5703C44.0039 13.8193 43.5449 14.2783 43.5449 14.8447C43.5449 15.4112 44.0039 15.8701 44.5703 15.8701H62.7186C63.3612 15.8701 63.884 16.3929 63.884 17.0355C63.884 17.6781 63.3612 18.2008 62.7186 18.2008H61.8066C61.4582 18.2008 61.1338 18.3775 60.945 18.6703C60.756 18.963 60.7287 19.3314 60.8724 19.6487C63.8347 26.1976 64.8039 33.3921 63.789 40.3659H57.113C57.3867 39.4742 57.5368 38.5289 57.5368 37.5486C57.5368 32.2318 53.2112 27.9063 47.8945 27.9063C47.1864 27.9063 46.4969 27.9856 45.8324 28.1319C45.8009 27.829 45.694 27.5348 45.5109 27.2828C45.1829 26.8311 44.6536 26.5617 44.0953 26.5617H38.6891L35.6783 23.7401C35.1032 23.2011 34.4679 22.7621 33.7952 22.421C34.1306 21.486 34.504 20.5611 34.9166 19.6487C35.0601 19.3314 35.0328 18.9628 34.844 18.6703C34.6552 18.3775 34.3306 18.2008 33.9824 18.2008H33.0703C32.4278 18.2008 31.905 17.6781 31.905 17.0355C31.905 16.3929 32.4278 15.8701 33.0703 15.8701H39.7851C40.3516 15.8701 40.8105 15.4112 40.8105 14.8447C40.8105 14.2783 40.3516 13.8193 39.7851 13.8193H33.0701C31.2967 13.8193 29.8539 15.2621 29.8539 17.0355C29.8539 18.5975 30.9731 19.903 32.4517 20.1919C32.2441 20.7022 32.0497 21.2162 31.865 21.7329C29.3102 21.1696 26.5349 21.8375 24.5048 23.7401L24.4833 23.7602L21.4799 20.9453C18.3471 18.0095 13.4393 18.0092 10.3065 20.9453L4.3136 26.5617H1.7493C1.19108 26.5617 0.661844 26.8313 0.333719 27.2828C0.00559378 27.7346 -0.087375 28.3212 0.0851641 28.8522L5.59056 45.7963C4.8211 46.8724 4.36624 48.1882 4.36624 49.609C4.36624 51.3596 5.05612 52.9507 6.17612 54.1296H2.32927C1.76298 54.1296 1.30388 54.5886 1.30388 55.155C1.30388 55.7214 1.76298 56.1804 2.32927 56.1804H68.9746C69.541 56.1804 70 55.7214 70 55.155C70 54.5886 69.541 54.1297 68.9746 54.1297ZM59.9761 44.89H57.0026V42.4168H59.9761V44.89ZM34.2758 25.2366L35.6899 26.5617H24.4932L25.9071 25.2366C28.2536 23.0377 31.9294 23.0375 34.2758 25.2366ZM11.7089 22.4416C14.0554 20.2425 17.7312 20.2428 20.0775 22.4416L22.9841 25.1655L21.4942 26.5617H7.31266L11.7089 22.4416ZM10.9378 54.1297C8.44511 54.1297 6.41716 52.1018 6.41716 49.6091C6.41716 47.1165 8.44511 45.0885 10.9378 45.0885C13.4304 45.0885 15.4584 47.1165 15.4584 49.6091C15.4584 52.1018 13.4304 54.1297 10.9378 54.1297ZM15.6967 54.1297C16.7579 53.0133 17.4338 51.5276 17.5022 49.8856H28.3425C28.4108 51.5276 29.0869 53.0133 30.148 54.1297H15.6967ZM34.9069 54.1297C32.4142 54.1297 30.3863 52.1018 30.3863 49.6091C30.3863 47.1165 32.4142 45.0885 34.9069 45.0885C37.3995 45.0885 39.4275 47.1165 39.4275 49.6091C39.4275 52.1018 37.3995 54.1297 34.9069 54.1297ZM38.6193 44.1906C37.5622 43.4641 36.2836 43.0376 34.9067 43.0376C31.8981 43.0376 29.3571 45.0709 28.5806 47.8348H17.2637C16.4875 45.0709 13.9464 43.0376 10.9376 43.0376C9.56087 43.0376 8.28214 43.4641 7.22503 44.1906L6.41333 41.6924H13.2606C13.8269 41.6924 14.286 41.2335 14.286 40.6671C14.286 40.1006 13.8269 39.6417 13.2606 39.6417H5.7471L2.16343 28.6124H43.681L40.0974 39.6417H18.0458C17.4795 39.6417 17.0204 40.1006 17.0204 40.6671C17.0204 41.2335 17.4795 41.6924 18.0458 41.6924H39.431L38.6193 44.1906ZM39.6684 54.1297C40.7884 52.9508 41.4783 51.3597 41.4783 49.6091C41.4783 48.1884 41.0235 46.8724 40.254 45.7965L40.8116 44.0802C42.5742 45.9912 45.0959 47.1914 47.8945 47.1914C48.1101 47.1914 48.3232 47.1816 48.5353 47.1671V54.1299H39.6684V54.1297ZM48.5351 41.3914V45.11C48.3236 45.1282 48.1105 45.1405 47.8943 45.1405C45.2581 45.1405 42.9321 43.7894 41.5707 41.7439L45.2451 30.4352C46.0704 30.1267 46.9629 29.9572 47.8945 29.9572C52.0805 29.9572 55.4861 33.3627 55.4861 37.5488C55.4861 38.5442 55.2919 39.4946 54.9417 40.366H49.5605C48.9941 40.366 48.5351 40.825 48.5351 41.3914Z" fill="#E2A140"/>
</g>
<defs>
<clipPath id="clip0_148_210">
<rect width="70" height="70" fill="white"/>
</clipPath>
</defs>
</svg>
