<svg width="25" height="25" viewBox="0 0 25 25" fill="none" xmlns="http://www.w3.org/2000/svg">
<path d="M6.90104 11.2448C8.40104 14.1927 10.8125 16.6042 13.7656 18.1042L16.0573 15.8073C16.3437 15.5208 16.7552 15.4375 17.1146 15.5521C18.2812 15.9375 19.5365 16.1458 20.8333 16.1458C21.4115 16.1458 21.875 16.6094 21.875 17.1875V20.8333C21.875 21.4115 21.4115 21.875 20.8333 21.875C11.0521 21.875 3.125 13.9479 3.125 4.16667C3.125 3.58854 3.59375 3.125 4.16667 3.125H7.8125C8.39062 3.125 8.85417 3.58854 8.85417 4.16667C8.85417 5.46354 9.0625 6.71875 9.44792 7.88542C9.5625 8.24479 9.47917 8.65625 9.19271 8.94271L6.90104 11.2448Z" fill="white"/>
</svg>
