<svg width="18" height="16" viewBox="0 0 18 16" fill="none" xmlns="http://www.w3.org/2000/svg">
<g clip-path="url(#clip0_450_141)">
<rect width="17.1429" height="16" fill="white"/>
<path d="M6.20986 7.61936L8.23539 10.9111H6.95282L5.67024 8.48003L5.6155 8.29884L5.52165 8.46493L5.02896 9.07647C4.98203 8.91037 4.96118 8.73924 4.96639 8.56308C4.97161 8.38692 4.99246 8.21579 5.02896 8.04969C5.07067 7.87857 5.12541 7.7175 5.19319 7.56651C5.26618 7.41551 5.3496 7.27961 5.44345 7.15882L6.73384 5.42236H7.96167L6.20986 7.61936ZM3.46484 10.9111V5.42236H4.58318V10.9111H3.46484Z" fill="#E2A140"/>
<path d="M11.473 10.9111C11.4 10.8708 11.34 10.818 11.2931 10.7525C11.2514 10.6821 11.2149 10.6091 11.1836 10.5336L11.1602 10.3826L11.0663 10.5109C10.8317 10.7173 10.6258 10.8507 10.4485 10.9111C10.2712 10.9765 10.0835 11.0092 9.8854 11.0092C9.69771 11.0092 9.52826 10.9765 9.37707 10.9111C9.23108 10.8507 9.10335 10.7676 8.99386 10.6619C8.88959 10.5562 8.80877 10.4354 8.75142 10.2995C8.69929 10.1636 8.67322 10.0202 8.67322 9.8692C8.67322 9.71317 8.70711 9.56217 8.77488 9.41621C8.84266 9.27024 8.95736 9.13938 9.11899 9.02362C9.28583 8.90282 9.50741 8.80216 9.78374 8.72163C10.0601 8.63606 10.4042 8.57818 10.8161 8.54798C10.79 8.72414 10.7352 8.87766 10.6518 9.00852C10.5736 9.13938 10.4511 9.21991 10.2843 9.25011C10.0861 9.28031 9.94275 9.34323 9.85412 9.43886C9.76549 9.53449 9.72117 9.64522 9.72117 9.77105C9.72117 9.90191 9.7681 10.0126 9.86194 10.1032C9.961 10.1888 10.0783 10.2316 10.2139 10.2316C10.3651 10.2316 10.5163 10.1838 10.6675 10.0881C10.8187 9.98748 10.962 9.85913 11.0976 9.7031V8.56308C11.0976 8.30135 11.022 8.09248 10.8708 7.93645C10.7248 7.78042 10.5137 7.7024 10.2373 7.7024C10.107 7.7024 9.96622 7.71499 9.81502 7.74015C9.66904 7.76532 9.5048 7.81062 9.32232 7.87605L9.05642 7.21167C9.29104 7.111 9.53087 7.03802 9.77592 6.99272C10.021 6.94742 10.2347 6.92477 10.4172 6.92477C10.9751 6.92477 11.4026 7.0657 11.6998 7.34756C12.0022 7.62439 12.1534 8.02956 12.1534 8.56308V9.95979C12.1534 10.1007 12.1612 10.2517 12.1768 10.4128C12.1977 10.5688 12.2316 10.7349 12.2785 10.9111H11.473Z" fill="#E2A140"/>
<path d="M13.0449 7.00782H15.9854V7.45326L14.2101 10.0655L14.0928 10.1938L14.2649 10.1712H16.001V10.9111H12.8337V10.4656L14.6246 7.8383L14.7419 7.70995L14.5777 7.7326H13.0449V7.00782Z" fill="#E2A140"/>
<path d="M14.0774 4.47483C11.9277 1.57082 8.64963 1.82749 7.2793 2.31882C11.1009 0.594019 14.0927 3.03749 15.1109 4.47483H14.0774Z" fill="#9FB054"/>
<path d="M15.0718 12.0332H14.0583C11.976 14.9847 8.64531 14.6644 7.24023 14.1353C11.2574 15.817 14.1351 13.4346 15.0718 12.0332Z" fill="#9FB054"/>
<path fill-rule="evenodd" clip-rule="evenodd" d="M10.6262 0.655851C10.1372 0.565092 9.63231 0.517571 9.11591 0.517571C4.72423 0.517571 1.16406 3.95447 1.16406 8.19411C1.16406 12.4337 4.72423 15.8706 9.11591 15.8706C10.7317 15.8706 12.235 15.4054 13.4898 14.6061C12.1865 15.4848 10.601 16.0002 8.8908 16.0002C4.44977 16.0002 0.849609 12.5247 0.849609 8.2374C0.849609 3.95013 4.44977 0.474609 8.8908 0.474609C9.48662 0.474609 10.0673 0.537167 10.6262 0.655851Z" fill="#E2A140"/>
<path d="M0.504031 9.88578C0.584236 10.6742 1.09953 10.8499 1.34715 10.8391C1.33191 10.2195 0.857478 9.89256 0.605344 9.79437C0.557649 9.79023 0.231889 9.45188 0.0917969 9.29541C0.389686 9.6533 0.49074 9.83811 0.504031 9.88578Z" fill="#E2A140"/>
<path d="M1.86982 9.66119C2.06673 10.4305 1.61917 10.7642 1.37077 10.8349C1.16879 10.2459 1.523 9.78295 1.73771 9.60811C1.78338 9.58864 1.98671 9.16341 2.07031 8.97021C1.90136 9.40476 1.86625 9.61193 1.86982 9.66119Z" fill="#E2A140"/>
<path d="M0.754021 10.962C1.07683 11.777 1.68475 11.8147 1.94835 11.7317C1.74615 11.0774 1.13692 10.867 0.835785 10.8356C0.783151 10.8449 0.330682 10.5794 0.132812 10.4536C0.561106 10.7479 0.725407 10.9152 0.754021 10.962Z" fill="#E2A140"/>
<path d="M2.16859 10.3243C2.61184 11.0849 2.22614 11.5707 1.97788 11.7184C1.58297 11.151 1.82885 10.5551 2.00948 10.3064C2.05319 10.2724 2.14672 9.76067 2.17969 9.53076C2.12622 10.0423 2.15001 10.2729 2.16859 10.3243Z" fill="#E2A140"/>
<path d="M0.360665 8.85297C0.373582 9.64513 0.872207 9.86098 1.11991 9.86988C1.15739 9.25111 0.712344 8.88772 0.469406 8.76989C0.422222 8.76199 0.126321 8.39897 0 8.23193C0.266465 8.61221 0.35147 8.80441 0.360665 8.85297Z" fill="#E2A140"/>
<path d="M1.74536 8.73771C1.87622 9.52001 1.4018 9.81716 1.14823 9.86794C0.996995 9.26492 1.38936 8.83158 1.61821 8.67433C1.66538 8.65855 1.90416 8.25087 2.00391 8.06494C1.79859 8.48463 1.74599 8.68832 1.74536 8.73771Z" fill="#E2A140"/>
<path d="M0.371119 7.89545C0.287133 8.61956 0.729697 8.87223 0.961477 8.90805C1.0718 8.34775 0.697516 7.96648 0.483429 7.83182C0.44003 7.81934 0.205906 7.45508 0.107422 7.28857C0.311779 7.66528 0.368369 7.85012 0.371119 7.89545Z" fill="#E2A140"/>
<path d="M1.69294 7.94504C1.72176 8.67337 1.23365 8.89117 0.985992 8.90903C0.915825 8.34196 1.34248 7.99071 1.57963 7.87295C1.62648 7.86386 1.90375 7.51876 2.02148 7.36035C1.77461 7.72016 1.69959 7.90006 1.69294 7.94504Z" fill="#E2A140"/>
<path d="M0.491371 7.04434C0.375213 7.71085 0.77172 7.96672 0.984493 8.01135C1.11637 7.49785 0.789911 7.12624 0.598762 6.99095C0.559228 6.97725 0.361688 6.62832 0.279297 6.46924C0.448607 6.82823 0.491225 7.00222 0.491371 7.04434Z" fill="#E2A140"/>
<path d="M1.7155 7.15568C1.7036 7.83167 1.23998 8.00929 1.00966 8.01359C0.97472 7.48492 1.3885 7.18066 1.61438 7.08331C1.65825 7.0772 1.93334 6.77127 2.05078 6.63037C1.80306 6.95142 1.72404 7.11435 1.7155 7.15568Z" fill="#E2A140"/>
<path d="M0.68804 6.07344C0.48792 6.72112 0.848851 7.02209 1.05433 7.09162C1.25057 6.59766 0.973892 6.19014 0.801413 6.0332C0.763924 6.01491 0.612298 5.64519 0.550781 5.47754C0.67311 5.8539 0.693257 6.03163 0.68804 6.07344Z" fill="#E2A140"/>
<path d="M1.88946 6.3292C1.7916 6.99866 1.30888 7.11993 1.07976 7.09688C1.11238 6.56808 1.56175 6.31521 1.79831 6.2454C1.84263 6.24453 2.15458 5.97356 2.28906 5.84766C2.00235 6.13689 1.90319 6.2892 1.88946 6.3292Z" fill="#E2A140"/>
<path d="M0.961066 5.20743C0.720524 5.82989 1.05393 6.14806 1.2507 6.22934C1.47693 5.75739 1.23344 5.34009 1.07501 5.17519C1.03949 5.15486 0.916059 4.7826 0.867188 4.61426C0.961432 4.99116 0.969042 5.16675 0.961066 5.20743Z" fill="#E2A140"/>
<path d="M2.12009 5.5352C1.97835 6.18553 1.49664 6.27371 1.2735 6.23651C1.34165 5.71996 1.79965 5.50059 2.03643 5.44719C2.07995 5.44917 2.40442 5.20329 2.54492 5.08838C2.24396 5.35377 2.1363 5.49684 2.12009 5.5352Z" fill="#E2A140"/>
<path d="M1.39031 4.321C1.03798 4.89169 1.30684 5.26245 1.48531 5.37649C1.79558 4.95139 1.6336 4.49869 1.5084 4.30901C1.47723 4.28287 1.42499 3.89526 1.4082 3.72119C1.43087 4.10831 1.40572 4.28236 1.39031 4.321Z" fill="#E2A140"/>
<path d="M2.47167 4.84352C2.21136 5.45874 1.72108 5.46205 1.50848 5.38681C1.67152 4.89044 2.16286 4.75397 2.40572 4.74245C2.44817 4.75194 2.81308 4.56625 2.97266 4.47754C2.62725 4.6865 2.49475 4.80859 2.47167 4.84352Z" fill="#E2A140"/>
<path d="M1.92417 3.52868C1.51818 4.06512 1.75001 4.45849 1.91667 4.58812C2.2667 4.19285 2.14922 3.72752 2.0429 3.52739C2.0144 3.49855 1.99988 3.10793 2 2.93311C1.98512 3.32057 1.94325 3.4916 1.92417 3.52868Z" fill="#E2A140"/>
<path d="M2.94823 4.14539C2.62955 4.73447 2.14109 4.69357 1.93669 4.59949C2.14703 4.11999 2.64943 4.0284 2.89234 4.03882C2.93369 4.05209 3.31496 3.90011 3.48242 3.82617C3.11831 4.00308 2.97458 4.1127 2.94823 4.14539Z" fill="#E2A140"/>
<path d="M2.4842 2.84304C2.05749 3.31991 2.24519 3.70907 2.39238 3.84405C2.7549 3.49645 2.68105 3.04779 2.59655 2.85066C2.57191 2.82127 2.58942 2.45091 2.60352 2.28564C2.55846 2.65084 2.5052 2.8094 2.4842 2.84304Z" fill="#E2A140"/>
<path d="M3.4011 3.50318C3.05272 4.03633 2.59421 3.96126 2.4085 3.85708C2.6457 3.41945 3.12798 3.37031 3.35679 3.39827C3.39482 3.41389 3.76742 3.29863 3.93164 3.24121C3.57327 3.38132 3.42863 3.47424 3.4011 3.50318Z" fill="#E2A140"/>
<path d="M3.0854 2.27633C2.65368 2.68823 2.79817 3.06224 2.92437 3.19776C3.28679 2.90117 3.25235 2.48004 3.18897 2.29134C3.16836 2.26235 3.21268 1.92027 3.23828 1.76807C3.16882 2.10341 3.10742 2.24663 3.0854 2.27633Z" fill="#E2A140"/>
<path d="M3.88677 2.95339C3.52339 3.42299 3.10405 3.32099 2.9398 3.2113C3.19287 2.82239 3.64366 2.81092 3.85365 2.85301C3.88771 2.87018 4.24185 2.78966 4.39844 2.74805C4.05561 2.8526 3.91448 2.92851 3.88677 2.95339Z" fill="#E2A140"/>
<path d="M3.76463 1.74111C3.26838 2.04082 3.32264 2.4222 3.4118 2.57543C3.81764 2.37011 3.87723 1.96681 3.85881 1.77632C3.84575 1.74485 3.96219 1.43196 4.01953 1.29395C3.88091 1.59537 3.79184 1.71765 3.76463 1.74111Z" fill="#E2A140"/>
<path d="M4.37208 2.54219C3.92753 2.91011 3.5552 2.72875 3.42461 2.59208C3.74772 2.27763 4.17443 2.35862 4.36284 2.44098C4.39115 2.46407 4.74199 2.46041 4.89844 2.45312C4.55298 2.48171 4.40359 2.52441 4.37208 2.54219Z" fill="#E2A140"/>
<path d="M4.39667 1.30481C3.89472 1.59554 3.94161 1.97783 4.02779 2.13263C4.43753 1.93465 4.5049 1.53249 4.49015 1.34171C4.4777 1.31001 4.60016 0.999267 4.66016 0.862305C4.51574 1.16119 4.42433 1.28184 4.39667 1.30481Z" fill="#E2A140"/>
<path d="M4.98959 2.11571C4.53802 2.47558 4.16926 2.28755 4.04132 2.14856C4.37044 1.83997 4.79552 1.92862 4.98231 2.01435C5.01016 2.03796 5.36102 2.0406 5.51758 2.03613C5.17163 2.0585 5.02144 2.09851 4.98959 2.11571Z" fill="#E2A140"/>
<path d="M5.0266 0.991528C4.54124 1.2215 4.55365 1.57686 4.62052 1.72579C5.01355 1.57428 5.1079 1.20919 5.10967 1.0325C5.10076 1.00239 5.23846 0.725565 5.30469 0.604004C5.14773 0.868266 5.0539 0.972462 5.0266 0.991528Z" fill="#E2A140"/>
<path d="M5.5057 1.7827C5.06115 2.08006 4.73687 1.87938 4.6303 1.74186C4.95803 1.48251 5.34213 1.59596 5.50715 1.68886C5.53089 1.71267 5.85359 1.7414 5.99805 1.74902C5.67785 1.74368 5.5364 1.76925 5.5057 1.7827Z" fill="#E2A140"/>
<path d="M5.72283 0.704825C5.26663 0.86063 5.23945 1.17779 5.28289 1.31689C5.64858 1.22158 5.77171 0.906471 5.79228 0.749569C5.7876 0.721908 5.93977 0.489614 6.01172 0.388184C5.84378 0.607384 5.74915 0.690611 5.72283 0.704825Z" fill="#E2A140"/>
<path d="M6.0665 1.45619C5.63932 1.676 5.37262 1.4651 5.29266 1.33217C5.6119 1.13445 5.94116 1.27379 6.07788 1.37292C6.09642 1.39646 6.38021 1.45433 6.50781 1.47559C6.22373 1.43876 6.09524 1.44731 6.0665 1.45619Z" fill="#E2A140"/>
<path d="M6.39935 0.472051C5.93444 0.60168 5.88799 0.916746 5.92287 1.05808C6.29374 0.983698 6.43585 0.676123 6.46595 0.520662C6.46296 0.492783 6.62903 0.269532 6.70703 0.172363C6.52602 0.381647 6.42649 0.459356 6.39935 0.472051Z" fill="#E2A140"/>
<path d="M6.69344 1.24219C6.25362 1.43737 6.00022 1.21168 5.9285 1.07445C6.25923 0.895194 6.57944 1.05299 6.70988 1.15971C6.72695 1.18427 7.00673 1.25816 7.13281 1.28662C6.85147 1.23372 6.72267 1.23496 6.69344 1.24219Z" fill="#E2A140"/>
<path d="M7.02886 0.316173C6.58876 0.425588 6.53623 0.720125 6.56497 0.853716C6.91522 0.793684 7.05734 0.508705 7.09 0.363563C7.08798 0.337314 7.25019 0.132125 7.32617 0.0429688C7.15033 0.234652 7.05469 0.304973 7.02886 0.316173Z" fill="#E2A140"/>
<path d="M7.28412 1.04582C6.86572 1.21743 6.63424 0.998881 6.5708 0.868158C6.88634 0.708619 7.18246 0.865202 7.30188 0.968826C7.31722 0.99233 7.57776 1.06908 7.69531 1.09912C7.43271 1.04204 7.31177 1.0398 7.28412 1.04582Z" fill="#E2A140"/>
<path d="M7.72946 0.234195C7.31457 0.264406 7.21811 0.52169 7.22174 0.646555C7.54741 0.646886 7.72302 0.41214 7.77666 0.286408C7.77922 0.262437 7.95963 0.102723 8.04297 0.0341797C7.85252 0.179603 7.75461 0.228116 7.72946 0.234195Z" fill="#E2A140"/>
<path d="M7.83753 0.931025C7.43182 1.02066 7.25965 0.78772 7.22428 0.660047C7.53527 0.565305 7.77603 0.752446 7.86637 0.864396C7.87627 0.887962 8.09829 0.997622 8.19922 1.04297C7.97207 0.950709 7.86344 0.929898 7.83753 0.931025Z" fill="#E2A140"/>
<path d="M8.24581 0.18951C7.88094 0.233327 7.80721 0.464415 7.81595 0.574481C8.10343 0.56131 8.24802 0.346845 8.28979 0.233646C8.29099 0.212381 8.44315 0.063947 8.51367 0C8.35202 0.136235 8.26774 0.183105 8.24581 0.18951Z" fill="#E2A140"/>
<path d="M8.37304 0.800419C8.01891 0.896307 7.85661 0.697815 7.81972 0.586583C8.09002 0.4901 8.31084 0.645332 8.39555 0.740414C8.40533 0.760806 8.60616 0.848423 8.69727 0.884277C8.49267 0.812232 8.39587 0.798353 8.37304 0.800419Z" fill="#E2A140"/>
<path d="M8.80322 0.222088C8.477 0.217831 8.38313 0.412306 8.37697 0.510077C8.63131 0.532199 8.78537 0.36064 8.83633 0.266038C8.84005 0.247487 8.99247 0.134854 9.0625 0.0869141C8.90328 0.187711 8.8233 0.219029 8.80322 0.222088Z" fill="#E2A140"/>
<path d="M8.83885 0.773049C8.51551 0.815819 8.39782 0.622324 8.37939 0.52023C8.62911 0.467111 8.80368 0.629441 8.86618 0.722945C8.87221 0.742016 9.03772 0.842571 9.11328 0.884766C8.94251 0.797456 8.85917 0.773909 8.83885 0.773049Z" fill="#E2A140"/>
<path d="M9.38338 0.250946C9.05954 0.212749 8.94449 0.396317 8.92744 0.492876C9.17783 0.54135 9.35016 0.386831 9.41138 0.298086C9.41716 0.280031 9.58127 0.183924 9.65625 0.143555C9.48669 0.227187 9.40369 0.249995 9.38338 0.250946Z" fill="#E2A140"/>
<path d="M9.35683 0.803234C9.03061 0.812091 8.93522 0.607471 8.9283 0.504054C9.1825 0.477243 9.33791 0.656801 9.3896 0.756267C9.39347 0.775855 9.54678 0.893055 9.61719 0.942871C9.45717 0.838291 9.37694 0.806205 9.35683 0.803234Z" fill="#E2A140"/>
<path d="M9.82897 0.307479C9.55684 0.27037 9.45693 0.423224 9.441 0.50429C9.65109 0.548935 9.79876 0.421422 9.85178 0.34761C9.85694 0.332492 9.99674 0.254049 10.0605 0.221191C9.91637 0.289044 9.84609 0.306989 9.82897 0.307479Z" fill="#E2A140"/>
<path d="M9.79667 0.770999C9.52177 0.773483 9.44478 0.599689 9.44064 0.512481C9.65518 0.493777 9.78314 0.647378 9.82504 0.731941C9.82798 0.748498 9.95518 0.849547 10.0137 0.892578C9.88061 0.802056 9.81356 0.773808 9.79667 0.770999Z" fill="#E2A140"/>
</g>
<defs>
<clipPath id="clip0_450_141">
<rect width="17.1429" height="16" fill="white"/>
</clipPath>
</defs>
</svg>
