<svg width="157" height="77" viewBox="0 0 157 77" fill="none" xmlns="http://www.w3.org/2000/svg">
<path d="M78.168 25.9012H93.8919V29.6158H83.3251V52.1197H78.168V25.9012ZM84.6956 40.1825C84.8158 39.7978 84.972 39.3891 85.1644 38.9563C85.3567 38.5236 85.5972 38.1269 85.8857 37.7662C86.1742 37.4056 86.5108 37.1171 86.8955 36.9007C87.3042 36.6603 87.773 36.5401 88.302 36.5401H92.6657V40.1825H84.6956Z" fill="#504034"/>
<path d="M110.228 40.6874C110.3 40.1344 110.276 39.6055 110.156 39.1006C110.036 38.5957 109.832 38.1509 109.543 37.7662C109.279 37.3816 108.93 37.081 108.497 36.8646C108.088 36.6242 107.608 36.504 107.055 36.504C106.55 36.504 106.045 36.6122 105.54 36.8286C105.059 37.045 104.614 37.3936 104.206 37.8744C103.797 38.3312 103.46 38.9323 103.196 39.6776C102.955 40.3989 102.835 41.2765 102.835 42.3103C102.835 44.402 103.304 46.0249 104.242 47.1789C105.179 48.3089 106.406 48.8739 107.92 48.8739C108.762 48.8739 109.579 48.7778 110.373 48.5854C111.19 48.369 112.128 48.0204 113.186 47.5396L114.448 50.8935C113.149 51.5186 111.923 51.9514 110.769 52.1918C109.639 52.4563 108.509 52.5885 107.379 52.5885C105.72 52.5885 104.29 52.288 103.088 51.6869C101.91 51.0859 100.924 50.3165 100.13 49.3788C99.361 48.4171 98.784 47.3352 98.3993 46.1331C98.0387 44.9309 97.8583 43.7168 97.8583 42.4906C97.8583 41 98.0988 39.6656 98.5796 38.4875C99.0845 37.3094 99.7577 36.3237 100.599 35.5303C101.465 34.7128 102.475 34.0877 103.629 33.6549C104.783 33.2222 106.009 33.0058 107.307 33.0058C108.629 33.0058 109.844 33.2703 110.95 33.7992C112.056 34.3281 112.945 35.0614 113.618 35.9991C114.292 36.9368 114.7 38.0668 114.844 39.3891C115.013 40.6874 114.832 42.1059 114.304 43.6447H104.206C104.47 42.8032 104.843 42.1059 105.324 41.553C105.828 40.9759 106.393 40.6874 107.019 40.6874H110.228Z" fill="#504034"/>
<path d="M130.585 40.6874C130.657 40.1344 130.633 39.6055 130.513 39.1006C130.392 38.5957 130.188 38.1509 129.899 37.7662C129.635 37.3816 129.286 37.081 128.854 36.8646C128.445 36.6242 127.964 36.504 127.411 36.504C126.906 36.504 126.401 36.6122 125.896 36.8286C125.416 37.045 124.971 37.3936 124.562 37.8744C124.153 38.3312 123.817 38.9323 123.552 39.6776C123.312 40.3989 123.192 41.2765 123.192 42.3103C123.192 44.402 123.66 46.0249 124.598 47.1789C125.536 48.3089 126.762 48.8739 128.277 48.8739C129.118 48.8739 129.936 48.7778 130.729 48.5854C131.546 48.369 132.484 48.0204 133.542 47.5396L134.804 50.8935C133.506 51.5186 132.28 51.9514 131.126 52.1918C129.996 52.4563 128.866 52.5885 127.736 52.5885C126.077 52.5885 124.646 52.288 123.444 51.6869C122.266 51.0859 121.28 50.3165 120.487 49.3788C119.717 48.4171 119.14 47.3352 118.756 46.1331C118.395 44.9309 118.215 43.7168 118.215 42.4906C118.215 41 118.455 39.6656 118.936 38.4875C119.441 37.3094 120.114 36.3237 120.956 35.5303C121.821 34.7128 122.831 34.0877 123.985 33.6549C125.139 33.2222 126.365 33.0058 127.664 33.0058C128.986 33.0058 130.2 33.2703 131.306 33.7992C132.412 34.3281 133.302 35.0614 133.975 35.9991C134.648 36.9368 135.057 38.0668 135.201 39.3891C135.369 40.6874 135.189 42.1059 134.66 43.6447H124.562C124.826 42.8032 125.199 42.1059 125.68 41.553C126.185 40.9759 126.75 40.6874 127.375 40.6874H130.585Z" fill="#504034"/>
<path d="M146.361 52.5885C145.063 52.5885 143.897 52.3481 142.863 51.8673C141.829 51.3624 140.963 50.6651 140.266 49.7755C139.569 48.886 139.028 47.8401 138.643 46.638C138.283 45.4118 138.102 44.0895 138.102 42.6709C138.102 41.3967 138.319 40.1825 138.752 39.0285C139.184 37.8744 139.761 36.8646 140.483 35.9991C141.228 35.1336 142.081 34.4484 143.043 33.9435C144.005 33.4145 145.003 33.15 146.036 33.15C146.662 33.15 147.263 33.1981 147.84 33.2943C148.441 33.3664 149.21 33.5347 150.148 33.7992C149.811 34.6407 149.426 35.3259 148.994 35.8548C148.561 36.3597 148.044 36.6362 147.443 36.6843C146.698 36.7324 146.073 36.9127 145.568 37.2253C145.063 37.5378 144.654 37.9586 144.341 38.4875C144.029 38.9924 143.8 39.6055 143.656 40.3268C143.512 41.0481 143.44 41.8294 143.44 42.6709C143.44 43.5124 143.524 44.3058 143.692 45.0512C143.861 45.7965 144.101 46.4577 144.414 47.0347C144.75 47.5877 145.159 48.0325 145.64 48.369C146.121 48.7056 146.662 48.8739 147.263 48.8739C148.585 48.8739 149.979 48.0324 151.446 46.3495V24.7832H156.459V47.5756C156.459 48.2488 156.495 48.9701 156.567 49.7395C156.663 50.4848 156.808 51.2782 157 52.1197H153.141C152.829 51.9514 152.564 51.711 152.348 51.3984C152.155 51.0859 151.999 50.7613 151.879 50.4247L151.699 49.5952L151.085 50.3886C150.148 51.2301 149.294 51.8071 148.525 52.1197C147.78 52.4323 147.058 52.5885 146.361 52.5885Z" fill="#504034"/>
<path d="M28.6311 36.3965L37.9717 52.1204H32.0572L26.1427 40.5078L25.8903 39.6422L25.4575 40.4356L23.1855 43.3568C22.9691 42.5634 22.8729 41.746 22.8969 40.9045C22.921 40.063 23.0172 39.2455 23.1855 38.4521C23.3778 37.6347 23.6302 36.8653 23.9428 36.144C24.2794 35.4227 24.6641 34.7736 25.0968 34.1966L31.0474 25.9019H36.7094L28.6311 36.3965ZM15.9727 52.1204V25.9019H21.1298V52.1204H15.9727Z" fill="#E2A140"/>
<path d="M52.9016 52.1204C52.565 51.928 52.2885 51.6756 52.0721 51.363C51.8798 51.0264 51.7115 50.6778 51.5672 50.3172L51.4591 49.5959L51.0263 50.209C49.9444 51.1947 48.9947 51.8319 48.1772 52.1204C47.3598 52.4329 46.4942 52.5892 45.5806 52.5892C44.7151 52.5892 43.9337 52.4329 43.2365 52.1204C42.5633 51.8319 41.9742 51.4352 41.4693 50.9303C40.9885 50.4254 40.6158 49.8483 40.3513 49.1992C40.1109 48.55 39.9907 47.8648 39.9907 47.1435C39.9907 46.3982 40.147 45.6769 40.4595 44.9797C40.7721 44.2825 41.301 43.6574 42.0464 43.1044C42.8157 42.5274 43.8375 42.0465 45.1118 41.6618C46.3861 41.2531 47.9729 40.9766 49.8722 40.8323C49.752 41.6738 49.4996 42.4071 49.1149 43.0323C48.7543 43.6574 48.1893 44.042 47.4199 44.1863C46.5063 44.3306 45.8451 44.6311 45.4364 45.0879C45.0276 45.5447 44.8233 46.0736 44.8233 46.6747C44.8233 47.2998 45.0397 47.8288 45.4724 48.2615C45.9292 48.6703 46.4702 48.8746 47.0953 48.8746C47.7925 48.8746 48.4898 48.6462 49.187 48.1894C49.8843 47.7085 50.5454 47.0955 51.1705 46.3501V40.9045C51.1705 39.6543 50.8219 38.6565 50.1247 37.9112C49.4515 37.1658 48.4778 36.7932 47.2035 36.7932C46.6024 36.7932 45.9533 36.8533 45.256 36.9735C44.5829 37.0937 43.8255 37.3101 42.984 37.6227L41.7578 34.449C42.8398 33.9682 43.9457 33.6195 45.0757 33.4032C46.2057 33.1868 47.1915 33.0786 48.033 33.0786C50.6055 33.0786 52.577 33.7518 53.9475 35.0982C55.3419 36.4205 56.0392 38.356 56.0392 40.9045V47.5763C56.0392 48.2495 56.0752 48.9708 56.1474 49.7402C56.2435 50.4855 56.3998 51.2789 56.6162 52.1204H52.9016Z" fill="#E2A140"/>
<path d="M60.1502 33.4753H73.7103V35.6031L65.5237 48.0812L64.9828 48.6943L65.7762 48.5861H73.7824V52.1204H59.1765V49.9926L67.4351 37.4423L67.9761 36.8292L67.2187 36.9374H60.1502V33.4753Z" fill="#E2A140"/>
<path d="M64.9289 21.3729C55.0159 7.50095 39.8993 8.727 33.5801 11.074C51.2032 2.83495 64.9995 14.507 69.6948 21.3729H64.9289Z" fill="#9FB054"/>
<path d="M69.5131 57.4751H64.8395C55.2372 71.574 39.8778 70.0439 33.3984 67.5165C51.9232 75.5496 65.1935 64.1693 69.5131 57.4751Z" fill="#9FB054"/>
<path fill-rule="evenodd" clip-rule="evenodd" d="M49.0715 3.14761C46.7911 2.70373 44.4351 2.47119 42.0249 2.47119C21.7729 2.47119 5.35547 18.8886 5.35547 39.1406C5.35547 59.3925 21.7729 75.81 42.0249 75.81C49.5401 75.81 56.5273 73.5492 62.3435 69.6706C56.3074 73.9279 48.9434 76.4284 40.9955 76.4284C20.516 76.4284 3.91406 59.8265 3.91406 39.347C3.91406 18.8675 20.516 2.26562 40.9955 2.26562C43.7691 2.26562 46.4717 2.57016 49.0715 3.14761Z" fill="#E2A140"/>
<path d="M2.3131 47.2244C2.68296 50.9908 5.05918 51.8297 6.20106 51.7783C6.13079 48.8183 3.943 47.2568 2.7803 46.7877C2.56035 46.768 1.05814 45.1517 0.412109 44.4043C1.7858 46.1139 2.25181 46.9967 2.3131 47.2244Z" fill="#E2A140"/>
<path d="M8.62622 46.1503C9.53428 49.8251 7.47035 51.4192 6.32487 51.7569C5.39348 48.9434 7.02691 46.7319 8.01701 45.8967C8.22763 45.8037 9.16526 43.7725 9.55078 42.8496C8.77167 44.9253 8.60978 45.9149 8.62622 46.1503Z" fill="#E2A140"/>
<path d="M3.48185 52.3612C4.97048 56.2542 7.77383 56.4344 8.98943 56.0378C8.05699 52.9123 5.24754 51.9075 3.8589 51.7571C3.61618 51.802 1.52965 50.5337 0.617188 49.9326C2.59223 51.3386 3.34989 52.1375 3.48185 52.3612Z" fill="#E2A140"/>
<path d="M9.99961 49.3182C12.0436 52.9519 10.265 55.2721 9.12014 55.978C7.29908 53.2674 8.43293 50.4209 9.26587 49.2329C9.46747 49.0703 9.89873 46.6261 10.0508 45.5278C9.80424 47.9714 9.91394 49.0729 9.99961 49.3182Z" fill="#E2A140"/>
<path d="M1.66318 42.2893C1.72275 46.0733 4.02212 47.1044 5.16437 47.1469C5.33721 44.1911 3.28493 42.4553 2.16463 41.8925C1.94705 41.8547 0.582519 40.1207 0 39.3228C1.22879 41.1393 1.62078 42.0574 1.66318 42.2893Z" fill="#E2A140"/>
<path d="M8.0421 41.7371C8.64556 45.4741 6.45779 46.8934 5.28847 47.136C4.59108 44.2555 6.40046 42.1855 7.45575 41.4344C7.67329 41.359 8.77442 39.4116 9.23438 38.5234C8.28757 40.5282 8.04502 41.5012 8.0421 41.7371Z" fill="#E2A140"/>
<path d="M1.71602 37.7144C1.32872 41.1733 3.36958 42.3802 4.43842 42.5514C4.94718 39.8749 3.22118 38.0536 2.23393 37.4104C2.0338 37.3508 0.954151 35.6108 0.5 34.8154C1.44238 36.6149 1.70334 37.4978 1.71602 37.7144Z" fill="#E2A140"/>
<path d="M7.81695 37.9507C7.94986 41.4298 5.69898 42.4702 4.55693 42.5555C4.23336 39.8467 6.20085 38.1688 7.29444 37.6063C7.51047 37.5629 8.78911 35.9144 9.33203 35.1577C8.19357 36.8764 7.84762 37.7358 7.81695 37.9507Z" fill="#E2A140"/>
<path d="M2.25531 33.6485C1.71965 36.8323 3.54812 38.0546 4.52931 38.2677C5.13743 35.8149 3.63201 34.0398 2.75053 33.3935C2.56823 33.328 1.65728 31.6613 1.27734 30.9014C2.05811 32.6162 2.25464 33.4473 2.25531 33.6485Z" fill="#E2A140"/>
<path d="M7.89529 34.1797C7.84041 37.4088 5.70246 38.2572 4.64035 38.2778C4.47923 35.7524 6.38732 34.2991 7.42896 33.834C7.63127 33.8048 8.89986 32.3435 9.44141 31.6704C8.29906 33.204 7.93468 33.9823 7.89529 34.1797Z" fill="#E2A140"/>
<path d="M3.17593 29.0096C2.25309 32.1034 3.9175 33.5411 4.86505 33.8732C5.76999 31.5137 4.49412 29.567 3.69874 28.8174C3.52586 28.73 2.82665 26.9639 2.54297 26.1631C3.10708 27.9609 3.19999 28.8099 3.17593 29.0096Z" fill="#E2A140"/>
<path d="M8.70802 30.2304C8.25675 33.4283 6.03074 34.0076 4.97415 33.8975C5.12458 31.3715 7.19682 30.1636 8.2877 29.8301C8.49207 29.826 9.93063 28.5316 10.5508 27.9302C9.22863 29.3118 8.77138 30.0394 8.70802 30.2304Z" fill="#E2A140"/>
<path d="M4.43096 24.876C3.32172 27.8493 4.85919 29.3692 5.76659 29.7574C6.80982 27.503 5.68698 25.5097 4.9564 24.7219C4.79261 24.6248 4.22341 22.8466 3.99805 22.0425C4.43265 23.8429 4.46774 24.6816 4.43096 24.876Z" fill="#E2A140"/>
<path d="M9.7753 26.4381C9.12167 29.5446 6.90029 29.9658 5.87131 29.7881C6.18555 27.3207 8.2976 26.2728 9.38949 26.0177C9.5902 26.0271 11.0865 24.8526 11.7344 24.3037C10.3465 25.5715 9.85004 26.2548 9.7753 26.4381Z" fill="#E2A140"/>
<path d="M6.42139 20.6406C4.79665 23.3666 6.03647 25.1377 6.85948 25.6824C8.29028 23.6518 7.54332 21.4893 6.96594 20.5833C6.82223 20.4584 6.58133 18.6069 6.50391 17.7754C6.60841 19.6246 6.49244 20.456 6.42139 20.6406Z" fill="#E2A140"/>
<path d="M11.3987 23.1369C10.1983 26.0757 7.93742 26.0915 6.95702 25.7321C7.70889 23.361 9.97468 22.7091 11.0946 22.6541C11.2904 22.6994 12.9731 21.8124 13.709 21.3887C12.1162 22.3868 11.5051 22.97 11.3987 23.1369Z" fill="#E2A140"/>
<path d="M8.87298 16.8533C7.00079 19.4157 8.06983 21.2948 8.83838 21.914C10.4525 20.0259 9.91075 17.8031 9.42049 16.8471C9.28907 16.7093 9.2221 14.8434 9.22266 14.0083C9.15405 15.8592 8.96095 16.6761 8.87298 16.8533Z" fill="#E2A140"/>
<path d="M13.5952 19.8037C12.1256 22.6176 9.87313 22.4222 8.93057 21.9728C9.90055 19.6823 12.2173 19.2448 13.3375 19.2946C13.5282 19.358 15.2864 18.632 16.0586 18.2788C14.3795 19.1239 13.7167 19.6475 13.5952 19.8037Z" fill="#E2A140"/>
<path d="M11.4478 13.581C9.48007 15.8589 10.3456 17.7179 11.0244 18.3626C12.6962 16.7023 12.3556 14.5591 11.9659 13.6175C11.8523 13.4771 11.933 11.7079 11.998 10.9185C11.7903 12.6629 11.5447 13.4203 11.4478 13.581Z" fill="#E2A140"/>
<path d="M15.6863 16.7343C14.0797 19.281 11.9653 18.9224 11.109 18.4248C12.2028 16.3343 14.4268 16.0996 15.4819 16.2331C15.6573 16.3078 17.3755 15.7572 18.1328 15.4829C16.4802 16.1522 15.8132 16.596 15.6863 16.7343Z" fill="#E2A140"/>
<path d="M14.2247 10.8742C12.2339 12.8417 12.9001 14.6283 13.4821 15.2757C15.1534 13.8589 14.9946 11.8473 14.7023 10.9459C14.6073 10.8074 14.8116 9.17334 14.9297 8.44629C14.6094 10.0482 14.3262 10.7323 14.2247 10.8742Z" fill="#E2A140"/>
<path d="M17.9217 14.1078C16.246 16.351 14.3123 15.8638 13.5549 15.3398C14.7219 13.4821 16.8007 13.4273 17.769 13.6283C17.9261 13.7104 19.5592 13.3257 20.2812 13.127C18.7003 13.6264 18.0495 13.989 17.9217 14.1078Z" fill="#E2A140"/>
<path d="M17.3675 8.31572C15.0791 9.74739 15.3293 11.5692 15.7404 12.3011C17.6119 11.3203 17.8868 9.39382 17.8018 8.48392C17.7416 8.33359 18.2785 6.83897 18.543 6.17969C17.9037 7.61956 17.493 8.20365 17.3675 8.31572Z" fill="#E2A140"/>
<path d="M20.1665 12.1388C18.1165 13.8963 16.3995 13.03 15.7973 12.3772C17.2873 10.8751 19.2551 11.2619 20.1239 11.6554C20.2544 11.7657 21.8723 11.7482 22.5938 11.7134C21.0007 11.8499 20.3118 12.0539 20.1665 12.1388Z" fill="#E2A140"/>
<path d="M20.2771 6.23388C17.9624 7.62266 18.1787 9.44879 18.5761 10.1882C20.4656 9.24253 20.7762 7.32146 20.7082 6.41014C20.6508 6.25871 21.2155 4.77436 21.4922 4.12012C20.8262 5.54783 20.4047 6.12417 20.2771 6.23388Z" fill="#E2A140"/>
<path d="M23.0027 10.1077C20.9203 11.8267 19.2198 10.9285 18.6298 10.2646C20.1476 8.79051 22.1078 9.21397 22.9691 9.62351C23.0976 9.73625 24.7155 9.74887 25.4375 9.72754C23.8422 9.83439 23.1496 10.0255 23.0027 10.1077Z" fill="#E2A140"/>
<path d="M23.1805 4.73492C20.9423 5.83343 20.9995 7.53093 21.3079 8.24237C23.1203 7.51863 23.5554 5.77465 23.5636 4.93062C23.5225 4.78678 24.1575 3.46446 24.4629 2.88379C23.7391 4.14612 23.3064 4.64385 23.1805 4.73492Z" fill="#E2A140"/>
<path d="M25.3897 8.51241C23.3397 9.93289 21.8443 8.97424 21.3529 8.31735C22.8642 7.07848 24.6354 7.6204 25.3964 8.06419C25.5059 8.17793 26.994 8.31515 27.6602 8.35156C26.1836 8.32606 25.5313 8.44817 25.3897 8.51241Z" fill="#E2A140"/>
<path d="M26.3963 3.36654C24.2926 4.11079 24.1673 5.62581 24.3676 6.29028C26.0539 5.835 26.6217 4.32977 26.7166 3.58028C26.695 3.44814 27.3967 2.33852 27.7285 1.854C26.9541 2.90108 26.5177 3.29864 26.3963 3.36654Z" fill="#E2A140"/>
<path d="M27.9688 6.95323C25.9989 8.00324 24.769 6.99579 24.4003 6.36082C25.8724 5.41634 27.3908 6.08194 28.0213 6.55546C28.1068 6.66793 29.4155 6.94439 30.0039 7.0459C28.6939 6.86997 28.1013 6.91082 27.9688 6.95323Z" fill="#E2A140"/>
<path d="M29.5069 2.25577C27.363 2.87498 27.1488 4.38 27.3097 5.0551C29.0199 4.69981 29.6753 3.23059 29.8141 2.48798C29.8003 2.3548 30.5661 1.28838 30.9258 0.824219C30.0911 1.82393 29.6321 2.19513 29.5069 2.25577Z" fill="#E2A140"/>
<path d="M30.8645 5.92841C28.8363 6.86072 27.6678 5.78267 27.337 5.1271C28.8622 4.27085 30.3388 5.02463 30.9403 5.53441C31.019 5.65172 32.3092 6.00468 32.8906 6.14062C31.5932 5.88794 30.9993 5.89386 30.8645 5.92841Z" fill="#E2A140"/>
<path d="M32.4122 1.5111C30.3827 2.03376 30.1404 3.4407 30.273 4.07884C31.8881 3.79208 32.5435 2.43079 32.6941 1.73748C32.6848 1.61209 33.4328 0.631938 33.7832 0.206055C32.9723 1.12169 32.5313 1.4576 32.4122 1.5111Z" fill="#E2A140"/>
<path d="M33.5843 4.99588C31.6548 5.81561 30.5874 4.77166 30.2949 4.14722C31.75 3.38513 33.1155 4.1331 33.6662 4.62809C33.7369 4.74037 34.9384 5.10697 35.4805 5.25049C34.2695 4.97781 33.7118 4.96713 33.5843 4.99588Z" fill="#E2A140"/>
<path d="M35.6461 1.11803C33.7329 1.26235 33.288 2.49134 33.3048 3.0878C34.8066 3.08938 35.6164 1.96804 35.8637 1.36744C35.8755 1.25294 36.7075 0.490015 37.0918 0.162598C36.2136 0.857257 35.762 1.089 35.6461 1.11803Z" fill="#E2A140"/>
<path d="M36.1446 4.44769C34.2737 4.87584 33.4798 3.76315 33.3166 3.15328C34.7507 2.70071 35.861 3.59465 36.2776 4.12941C36.3233 4.24198 37.3471 4.76581 37.8125 4.98242C36.765 4.54171 36.2641 4.4423 36.1446 4.44769Z" fill="#E2A140"/>
<path d="M38.0245 0.905254C36.342 1.11456 36.002 2.21842 36.0423 2.74419C37.368 2.68128 38.0347 1.65681 38.2274 1.11608C38.2329 1.01451 38.9345 0.305463 39.2598 0C38.5143 0.65077 38.1257 0.874656 38.0245 0.905254Z" fill="#E2A140"/>
<path d="M38.6045 3.82306C36.9714 4.28109 36.223 3.33294 36.0529 2.8016C37.2993 2.34072 38.3176 3.08224 38.7083 3.53643C38.7534 3.63383 39.6795 4.05236 40.0996 4.22363C39.1561 3.87948 38.7097 3.81319 38.6045 3.82306Z" fill="#E2A140"/>
<path d="M40.5973 1.05781C39.093 1.03747 38.6601 1.96645 38.6317 2.43348C39.8046 2.53915 40.515 1.71965 40.75 1.26775C40.7672 1.17914 41.47 0.641111 41.793 0.412109C41.0587 0.893598 40.6899 1.0432 40.5973 1.05781Z" fill="#E2A140"/>
<path d="M40.754 3.69291C39.263 3.89722 38.7202 2.97293 38.6352 2.48525C39.7868 2.2315 40.5918 3.00692 40.88 3.45358C40.9079 3.54467 41.6711 4.02501 42.0195 4.22656C41.232 3.8095 40.8477 3.69702 40.754 3.69291Z" fill="#E2A140"/>
<path d="M43.2729 1.19853C41.7796 1.01608 41.249 1.89295 41.1704 2.35419C42.325 2.58574 43.1197 1.84763 43.4021 1.42371C43.4287 1.33747 44.1855 0.878384 44.5312 0.685547C43.7494 1.08504 43.3666 1.19399 43.2729 1.19853Z" fill="#E2A140"/>
<path d="M43.1451 3.83493C41.6407 3.87724 41.2008 2.89981 41.1689 2.40581C42.3412 2.27774 43.0578 3.13545 43.2962 3.61058C43.3141 3.70415 44.021 4.26399 44.3457 4.50195C43.6078 4.00239 43.2378 3.84912 43.1451 3.83493Z" fill="#E2A140"/>
<path d="M45.3266 1.46785C44.0717 1.29058 43.611 2.02074 43.5375 2.40797C44.5063 2.62124 45.1873 2.01213 45.4318 1.65954C45.4556 1.58732 46.1003 1.21262 46.3945 1.05566C45.7297 1.37978 45.4056 1.4655 45.3266 1.46785Z" fill="#E2A140"/>
<path d="M45.1771 3.68682C43.9094 3.69868 43.5543 2.8685 43.5352 2.45192C44.5246 2.36258 45.1146 3.0963 45.3079 3.50025C45.3214 3.57934 45.908 4.06203 46.1777 4.26758C45.5641 3.83517 45.2549 3.70023 45.1771 3.68682Z" fill="#E2A140"/>
</svg>
