<svg fill="red" width="20" height="20" viewBox="0 0 20 20" xmlns="http://www.w3.org/2000/svg">
<g clip-path="url(#clip0_206_105)">
<path d="M4.14173 8.68693C5.71096 11.7709 8.23371 14.2937 11.3231 15.8629L13.7206 13.46C14.0203 13.1603 14.4507 13.0732 14.8267 13.193C16.0472 13.5962 17.3603 13.8142 18.717 13.8142C19.3219 13.8142 19.8068 14.2991 19.8068 14.9039V18.718C19.8068 19.3228 19.3219 19.8078 18.717 19.8078C8.48435 19.8078 0.191406 11.5148 0.191406 1.28213C0.191406 0.677319 0.681791 0.192383 1.28115 0.192383H5.09525C5.70006 0.192383 6.185 0.677319 6.185 1.28213C6.185 2.63886 6.40294 3.952 6.80615 5.17251C6.92602 5.54847 6.83884 5.97892 6.53916 6.2786L4.14173 8.68693Z" fill="#333333"/>
</g>
<defs>
<clipPath id="clip0_206_105">
<rect width="20" height="20" fill="white"/>
</clipPath>
</defs>
</svg>
