<svg width="24" height="24" viewBox="0 0 24 24" fill="none" xmlns="http://www.w3.org/2000/svg">
<g clip-path="url(#clip0_114_24)">
<path d="M4.97085 10.4244C6.85393 14.1252 9.88124 17.1525 13.5885 19.0356L16.4655 16.1521C16.8251 15.7925 17.3416 15.6879 17.7928 15.8317C19.2574 16.3156 20.8332 16.5771 22.4612 16.5771C23.187 16.5771 23.7689 17.159 23.7689 17.8848V22.4617C23.7689 23.1875 23.187 23.7694 22.4612 23.7694C10.182 23.7694 0.230469 13.8179 0.230469 1.53865C0.230469 0.81288 0.81893 0.230957 1.53816 0.230957H6.11508C6.84085 0.230957 7.42278 0.81288 7.42278 1.53865C7.42278 3.16673 7.68431 4.7425 8.16816 6.20711C8.31201 6.65826 8.20739 7.1748 7.84778 7.53442L4.97085 10.4244Z" fill="white"/>
</g>
<defs>
<clipPath id="clip0_114_24">
<rect width="24" height="24" fill="white"/>
</clipPath>
</defs>
</svg>
