<svg width="35" height="35" viewBox="0 0 35 35" fill="none" xmlns="http://www.w3.org/2000/svg">
<g clip-path="url(#clip0_114_25)">
<path d="M9.19277 28.8645L10.4598 29.6047C12.5964 30.8509 15.0266 31.5051 17.5 31.5C20.269 31.5 22.9757 30.6789 25.278 29.1406C27.5803 27.6022 29.3747 25.4157 30.4343 22.8576C31.494 20.2994 31.7712 17.4845 31.231 14.7687C30.6908 12.053 29.3575 9.55844 27.3995 7.6005C25.4416 5.64257 22.947 4.3092 20.2313 3.76901C17.5156 3.22881 14.7006 3.50606 12.1425 4.56569C9.58429 5.62531 7.39779 7.41973 5.85945 9.72202C4.32111 12.0243 3.50002 14.7311 3.50002 17.5C3.49492 19.9743 4.14975 22.4051 5.39702 24.542L6.13552 25.809L4.99277 30.0107L9.19277 28.8645ZM0.00702342 35L2.37302 26.306C0.814015 23.6335 -0.00505861 20.594 2.35064e-05 17.5C2.35064e-05 7.83475 7.83477 0 17.5 0C27.1653 0 35 7.83475 35 17.5C35 27.1652 27.1653 35 17.5 35C14.4074 35.005 11.3692 34.1865 8.69752 32.6287L0.00702342 35ZM11.1843 9.289C11.4188 9.2715 11.655 9.2715 11.8895 9.282C11.984 9.289 12.0785 9.2995 12.173 9.31C12.4513 9.3415 12.7575 9.51125 12.8608 9.74575C13.3823 10.9288 13.8898 12.1205 14.3798 13.3158C14.4883 13.5817 14.4235 13.923 14.217 14.2555C14.075 14.4803 13.9214 14.6976 13.7568 14.9065C13.559 15.1602 13.1338 15.6257 13.1338 15.6257C13.1338 15.6257 12.9605 15.8322 13.027 16.0895C13.0515 16.1875 13.132 16.3293 13.2055 16.4482L13.3088 16.6145C13.7568 17.3617 14.3588 18.1195 15.0938 18.8335C15.3038 19.0365 15.5085 19.2447 15.729 19.439C16.548 20.1617 17.4755 20.7515 18.4765 21.189L18.4853 21.1925C18.634 21.2572 18.7093 21.2922 18.9263 21.385C19.0348 21.4305 19.1468 21.4707 19.2605 21.5005C19.3781 21.5304 19.5019 21.5248 19.6162 21.4843C19.7305 21.4438 19.8303 21.3703 19.9028 21.273C21.1698 19.7382 21.2853 19.6385 21.2958 19.6385V19.642C21.3838 19.5599 21.4884 19.4976 21.6025 19.4593C21.7166 19.4209 21.8375 19.4075 21.9573 19.4198C22.0623 19.4268 22.169 19.446 22.267 19.4897C23.1963 19.915 24.717 20.5782 24.717 20.5782L25.7355 21.035C25.907 21.1173 26.0628 21.3115 26.068 21.4987C26.075 21.616 26.0855 21.805 26.0453 22.1515C25.9893 22.6047 25.8528 23.149 25.7163 23.4342C25.6228 23.6289 25.4987 23.8073 25.3488 23.9627C25.1722 24.1482 24.9789 24.3169 24.7713 24.4667C24.6995 24.5208 24.6265 24.5733 24.5525 24.6242C24.3349 24.7623 24.1112 24.8908 23.8823 25.0093C23.4317 25.2486 22.9341 25.386 22.4245 25.4118C22.1008 25.4293 21.777 25.4538 21.4515 25.4363C21.4375 25.4363 20.4575 25.284 20.4575 25.284C17.9695 24.6296 15.6685 23.4036 13.7375 21.7035C13.342 21.3553 12.9763 20.9807 12.6018 20.608C11.0443 19.0592 9.86827 17.388 9.15427 15.8095C8.78882 15.0348 8.59141 14.1915 8.57502 13.335C8.56781 12.2725 8.91513 11.2379 9.56202 10.395C9.68977 10.2305 9.81052 10.059 10.0188 9.86125C10.241 9.65125 10.381 9.53925 10.5333 9.46225C10.7357 9.3608 10.9565 9.30128 11.1825 9.28725L11.1843 9.289Z" fill="white"/>
</g>
<defs>
<clipPath id="clip0_114_25">
<rect width="35" height="35" fill="white"/>
</clipPath>
</defs>
</svg>
