<svg width="20" height="20" viewBox="0 0 20 20" fill="none" xmlns="http://www.w3.org/2000/svg">
<path d="M4.1427 8.68693C5.71193 11.7709 8.23469 14.2937 11.3241 15.8629L13.7215 13.46C14.0212 13.1603 14.4517 13.0732 14.8276 13.193C16.0482 13.5962 17.3613 13.8142 18.718 13.8142C19.3228 13.8142 19.8078 14.2991 19.8078 14.9039V18.718C19.8078 19.3228 19.3228 19.8078 18.718 19.8078C8.48533 19.8078 0.192383 11.5148 0.192383 1.28213C0.192383 0.677319 0.682767 0.192383 1.28213 0.192383H5.09623C5.70104 0.192383 6.18597 0.677319 6.18597 1.28213C6.18597 2.63886 6.40392 3.952 6.80713 5.17251C6.927 5.54847 6.83982 5.97892 6.54014 6.2786L4.1427 8.68693Z" fill="#E2A140"/>
</svg>
